<svg width="25" height="24" viewBox="0 0 25 24" fill="none" xmlns="http://www.w3.org/2000/svg">
<path d="M5.65039 5H11.6504C12.2004 5 12.6504 4.55 12.6504 4C12.6504 3.45 12.2004 3 11.6504 3H5.65039C4.55039 3 3.65039 3.9 3.65039 5V19C3.65039 20.1 4.55039 21 5.65039 21H11.6504C12.2004 21 12.6504 20.55 12.6504 20C12.6504 19.45 12.2004 19 11.6504 19H5.65039V5Z" fill="#EB5D5F"/>
<path d="M21.3004 11.65L18.5104 8.86C18.4408 8.78855 18.3516 8.73948 18.254 8.71907C18.1564 8.69865 18.0549 8.70783 17.9625 8.74541C17.8702 8.783 17.7911 8.84729 17.7355 8.93005C17.6799 9.01282 17.6503 9.11029 17.6504 9.21V11H10.6504C10.1004 11 9.65039 11.45 9.65039 12C9.65039 12.55 10.1004 13 10.6504 13H17.6504V14.79C17.6504 15.24 18.1904 15.46 18.5004 15.14L21.2904 12.35C21.4904 12.16 21.4904 11.84 21.3004 11.65Z" fill="#EB5D5F"/>
</svg>
