<svg width="25" height="24" viewBox="0 0 25 24" fill="none" xmlns="http://www.w3.org/2000/svg">
<path d="M6.65039 21V19C6.65039 17.9391 7.07182 16.9217 7.82196 16.1716C8.57211 15.4214 9.58952 15 10.6504 15H14.6504C15.7113 15 16.7287 15.4214 17.4788 16.1716C18.229 16.9217 18.6504 17.9391 18.6504 19V21M8.65039 7C8.65039 8.06087 9.07182 9.07828 9.82196 9.82843C10.5721 10.5786 11.5895 11 12.6504 11C13.7113 11 14.7287 10.5786 15.4788 9.82843C16.229 9.07828 16.6504 8.06087 16.6504 7C16.6504 5.93913 16.229 4.92172 15.4788 4.17157C14.7287 3.42143 13.7113 3 12.6504 3C11.5895 3 10.5721 3.42143 9.82196 4.17157C9.07182 4.92172 8.65039 5.93913 8.65039 7Z" stroke="#432B00" stroke-width="2" stroke-linecap="round" stroke-linejoin="round"/>
</svg>
