<svg width="44" height="44" viewBox="0 0 44 44" fill="none" xmlns="http://www.w3.org/2000/svg">
<path d="M27.3442 4.35233C27.4243 4.41913 27.5044 4.48593 27.5869 4.55475C27.6714 4.62421 27.756 4.69367 27.8431 4.76523C29.7441 6.41048 30.9222 8.76768 31.1963 11.2579C31.3504 14.1795 30.6618 16.7283 28.79 18.9922C28.7389 19.0566 28.6877 19.121 28.635 19.1873C28.2296 19.6789 27.7469 20.066 27.2432 20.4532C27.1425 20.5316 27.1425 20.5316 27.0397 20.6116C24.8728 22.2168 22.1043 22.7764 19.4615 22.4076C16.8512 21.9979 14.4989 20.5536 12.9078 18.4465C11.6064 16.6397 10.9659 14.5846 10.9688 12.3643C10.9688 12.3059 10.9688 12.2475 10.9688 12.1873C10.9718 11.2336 11.0588 10.3636 11.3447 9.45319C11.3749 9.35127 11.405 9.24935 11.436 9.14435C12.2268 6.70615 13.9722 4.60821 16.2406 3.41304C19.8204 1.60163 24.1584 1.82715 27.3442 4.35233Z" fill="#BD903F"/>
<path d="M20.9189 23.9654C21.1096 23.9659 21.3003 23.9654 21.4911 23.9648C22.2947 23.9645 23.0901 23.9982 23.8913 24.0625C23.7614 24.3349 23.6231 24.5214 23.4133 24.7393C21.3224 27.0571 20.6741 30.0838 20.7794 33.1168C20.8199 33.8149 20.9471 34.4779 21.1413 35.1485C21.1588 35.2101 21.1763 35.2717 21.1943 35.3352C21.6619 36.9246 22.4848 38.3279 23.5529 39.585C23.7194 39.7891 23.7194 39.7891 23.7194 39.961C21.3267 39.965 18.934 39.968 16.5413 39.9699C15.4302 39.9708 14.3192 39.972 13.2082 39.9739C12.2397 39.9757 11.2711 39.9768 10.3026 39.9771C9.78993 39.9774 9.27726 39.9779 8.76458 39.9791C8.28162 39.9803 7.79867 39.9807 7.31571 39.9804C7.13886 39.9805 6.96202 39.9808 6.78517 39.9815C5.43307 39.9863 4.39346 39.956 3.25018 39.1714C2.55133 38.4726 2.2106 37.5618 2.19922 36.5811C2.19974 36.5084 2.20026 36.4358 2.2008 36.361C2.20055 36.283 2.20031 36.2051 2.20005 36.1248C2.19988 35.961 2.20035 35.7972 2.20143 35.6334C2.2028 35.3866 2.20144 35.1398 2.19979 34.893C2.19715 32.632 2.88319 30.8421 4.46942 29.2188C4.52492 29.158 4.58042 29.0971 4.6376 29.0345C5.52533 28.0849 6.67504 27.4036 7.82098 26.8125C7.88206 26.7809 7.94314 26.7492 8.00607 26.7166C11.9523 24.6984 16.5173 23.9527 20.9189 23.9654Z" fill="#BD903F"/>
<path d="M37.9259 24.3149C38.0611 24.4302 38.1953 24.5466 38.3287 24.664C38.3981 24.721 38.4674 24.7781 38.5389 24.8369C40.3598 26.3809 41.4151 28.6417 41.7447 30.9804C41.7546 31.1091 41.7613 31.2381 41.7662 31.3671C41.7706 31.4706 41.7751 31.574 41.7796 31.6806C41.8532 34.2609 40.9853 36.7556 39.2297 38.6624C37.3856 40.5987 34.9571 41.7083 32.2771 41.7959C29.5117 41.8242 27.0643 40.7384 25.0836 38.837C23.9147 37.6728 23.1076 36.1345 22.6881 34.5468C22.6608 34.4445 22.6336 34.3423 22.6055 34.237C22.0545 31.798 22.4851 29.1473 23.7888 27.0165C25.2145 24.7789 27.3182 23.2637 29.8874 22.6042C32.6188 21.999 35.7057 22.5699 37.9259 24.3149ZM32.5172 31.0717C32.3721 31.2172 32.2269 31.3628 32.0818 31.5083C31.729 31.862 31.3764 32.216 31.024 32.5702C30.9019 32.5036 30.7799 32.4366 30.6579 32.3696C30.556 32.3137 30.556 32.3137 30.452 32.2567C30.2118 32.1182 29.9887 31.9626 29.7635 31.8014C29.1216 31.3272 29.1216 31.3272 28.3593 31.1633C27.9019 31.2485 27.5985 31.4285 27.2911 31.7753C27.0717 32.2316 27.0214 32.5628 27.1568 33.0536C27.5752 33.7597 28.3913 34.1834 29.063 34.6278C29.2419 34.7462 29.4203 34.8654 29.5987 34.9847C29.7125 35.0605 29.8265 35.1362 29.9404 35.2118C29.9936 35.2473 30.0468 35.2829 30.1015 35.3195C30.468 35.5611 30.7417 35.6781 31.1798 35.6908C31.287 35.6957 31.287 35.6957 31.3963 35.7006C31.9082 35.6189 32.2781 35.2085 32.6309 34.8528C32.6768 34.8072 32.7227 34.7616 32.77 34.7146C32.9202 34.5651 33.0699 34.415 33.2195 34.2648C33.3243 34.1601 33.4291 34.0555 33.5339 33.9508C33.7529 33.7321 33.9716 33.5131 34.1901 33.2938C34.47 33.0129 34.7507 32.7328 35.0316 32.4529C35.2479 32.2372 35.4638 32.0211 35.6796 31.8049C35.7829 31.7014 35.8864 31.5981 35.99 31.4948C36.1346 31.3507 36.2787 31.206 36.4226 31.0611C36.4653 31.0187 36.5081 30.9763 36.5522 30.9326C36.9028 30.5776 37.0642 30.3263 37.0665 29.8256C37.0537 29.312 36.9088 29.0938 36.5562 28.7245C35.1642 27.6303 33.3752 30.2092 32.5172 31.0717Z" fill="#BD903F"/>
</svg>
