<svg width="45" height="44" viewBox="0 0 45 44" fill="none" xmlns="http://www.w3.org/2000/svg">
<path d="M27.4848 4.35233C27.5649 4.41913 27.645 4.48593 27.7275 4.55475C27.8121 4.62421 27.8966 4.69367 27.9837 4.76523C29.8847 6.41048 31.0628 8.76768 31.3369 11.2579C31.491 14.1795 30.8024 16.7283 28.9307 18.9922C28.8795 19.0566 28.8283 19.121 28.7756 19.1873C28.3702 19.6789 27.8875 20.066 27.3838 20.4532C27.2831 20.5316 27.2831 20.5316 27.1804 20.6116C25.0135 22.2168 22.245 22.7764 19.6021 22.4076C16.9919 21.9979 14.6395 20.5536 13.0484 18.4465C11.7471 16.6397 11.1065 14.5846 11.1094 12.3643C11.1094 12.3059 11.1094 12.2475 11.1094 12.1873C11.1124 11.2336 11.1995 10.3636 11.4854 9.45319C11.5155 9.35127 11.5456 9.24935 11.5767 9.14435C12.3674 6.70615 14.1128 4.60821 16.3812 3.41304C19.961 1.60163 24.299 1.82715 27.4848 4.35233Z" fill="#CE3D40"/>
<path d="M21.0615 23.9654C21.2522 23.9659 21.4429 23.9654 21.6337 23.9648C22.4373 23.9645 23.2327 23.9982 24.0339 24.0625C23.904 24.3349 23.7657 24.5214 23.5558 24.7393C21.4649 27.0571 20.8167 30.0838 20.9219 33.1168C20.9625 33.8149 21.0897 34.4779 21.2839 35.1485C21.3014 35.2101 21.3189 35.2717 21.3369 35.3352C21.8045 36.9246 22.6274 38.3279 23.6955 39.585C23.862 39.7891 23.862 39.7891 23.862 39.961C21.4693 39.965 19.0766 39.968 16.6838 39.9699C15.5728 39.9708 14.4618 39.972 13.3508 39.9739C12.3822 39.9757 11.4137 39.9768 10.4452 39.9771C9.93251 39.9774 9.41984 39.9779 8.90716 39.9791C8.4242 39.9803 7.94125 39.9807 7.45829 39.9804C7.28144 39.9805 7.10459 39.9808 6.92775 39.9815C5.57565 39.9863 4.53604 39.956 3.39276 39.1714C2.69391 38.4726 2.35318 37.5618 2.3418 36.5811C2.34232 36.5084 2.34284 36.4358 2.34338 36.361C2.34313 36.283 2.34288 36.2051 2.34263 36.1248C2.34246 35.961 2.34292 35.7972 2.34401 35.6334C2.34538 35.3866 2.34402 35.1398 2.34237 34.893C2.33973 32.632 3.02577 30.8421 4.61199 29.2188C4.66749 29.158 4.72299 29.0971 4.78018 29.0345C5.66791 28.0849 6.81762 27.4036 7.96356 26.8125C8.02464 26.7809 8.08572 26.7492 8.14865 26.7166C12.0948 24.6984 16.6598 23.9527 21.0615 23.9654Z" fill="#CE3D40"/>
<path d="M38.0685 24.3149C38.2036 24.4302 38.3379 24.5466 38.4713 24.664C38.5406 24.721 38.61 24.7781 38.6814 24.8369C40.5023 26.3809 41.5577 28.6417 41.8873 30.9804C41.8972 31.1091 41.9039 31.2381 41.9088 31.3671C41.9132 31.4706 41.9176 31.574 41.9222 31.6806C41.9958 34.2609 41.1279 36.7556 39.3723 38.6624C37.5282 40.5987 35.0997 41.7083 32.4197 41.7959C29.6543 41.8242 27.2069 40.7384 25.2262 38.837C24.0573 37.6728 23.2502 36.1345 22.8307 34.5468C22.8034 34.4445 22.7762 34.3423 22.7481 34.237C22.1971 31.798 22.6277 29.1473 23.9314 27.0165C25.3571 24.7789 27.4608 23.2637 30.0299 22.6042C32.7614 21.999 35.8482 22.5699 38.0685 24.3149ZM27.1252 27.4667C25.8275 29.0368 25.2272 30.8884 25.4088 32.914C25.537 33.9567 25.9346 34.8384 26.44 35.7499C26.7437 35.6203 26.9387 35.4444 27.171 35.2116C27.2866 35.0962 27.2866 35.0962 27.4046 34.9786C27.4894 34.8932 27.5742 34.8077 27.659 34.7223C27.7488 34.6325 27.8386 34.5427 27.9284 34.453C28.172 34.2094 28.4151 33.9654 28.6581 33.7212C28.9122 33.466 29.1667 33.2113 29.4213 32.9566C29.9031 32.4743 30.3845 31.9915 30.8657 31.5085C31.4136 30.9587 31.962 30.4093 32.5105 29.86C33.6386 28.7301 34.7661 27.5996 35.8932 26.4687C35.8309 26.1865 35.8309 26.1865 35.5501 26.0632C35.4394 26.011 35.3281 25.96 35.2164 25.9101C35.1583 25.8836 35.1002 25.8571 35.0404 25.8298C32.3136 24.6181 29.1787 25.3204 27.1252 27.4667ZM37.4967 28.7964C37.3792 28.9132 37.3792 28.9132 37.2593 29.0323C37.1723 29.1197 37.0853 29.2071 36.9982 29.2945C36.9068 29.3857 36.8153 29.4769 36.7238 29.568C36.4749 29.8162 36.2264 30.0649 35.9781 30.3137C35.7187 30.5736 35.4589 30.833 35.1991 31.0925C34.7629 31.5284 34.327 31.9647 33.8914 32.4012C33.387 32.9064 32.8821 33.4111 32.3768 33.9154C31.9437 34.3477 31.5109 34.7804 31.0784 35.2133C30.8198 35.4722 30.5611 35.731 30.3021 35.9895C30.0586 36.2324 29.8156 36.4758 29.5729 36.7195C29.4835 36.8091 29.394 36.8986 29.3043 36.9879C29.1824 37.1093 29.061 37.2314 28.9397 37.3535C28.8714 37.4217 28.8032 37.49 28.7329 37.5604C28.5697 37.7114 28.5697 37.7114 28.5885 37.8984C30.3808 38.8681 32.1782 39.1815 34.1744 38.6718C34.5318 38.5523 34.8672 38.4073 35.2057 38.2421C35.284 38.2061 35.3623 38.1701 35.443 38.133C36.1273 37.7943 36.6471 37.3141 37.1822 36.7812C37.2451 36.7212 37.3081 36.6613 37.3729 36.5996C38.6082 35.3373 39.1092 33.5046 39.091 31.7803C39.0284 30.6507 38.6958 29.3874 38.0416 28.4452C37.7739 28.4452 37.683 28.6103 37.4967 28.7964Z" fill="#CE3D40"/>
</svg>
