<svg class="copy-btn cursor-pointer ml-4" width="14" height="14" viewBox="0 0 14 14" fill="none" xmlns="http://www.w3.org/2000/svg"><g clip-path="url(#clip0_417_56905)"><path d="M4.07812 5.63778C4.07812 5.22517 4.24203 4.82946 4.53379 4.5377C4.82555 4.24594 5.22126 4.08203 5.63387 4.08203H10.689C10.8933 4.08203 11.0956 4.12227 11.2844 4.20046C11.4732 4.27864 11.6447 4.39324 11.7891 4.5377C11.9336 4.68216 12.0482 4.85367 12.1264 5.04242C12.2046 5.23117 12.2448 5.43348 12.2448 5.63778V10.6929C12.2448 10.8973 12.2046 11.0996 12.1264 11.2883C12.0482 11.4771 11.9336 11.6486 11.7891 11.793C11.6447 11.9375 11.4732 12.0521 11.2844 12.1303C11.0956 12.2085 10.8933 12.2487 10.689 12.2487H5.63387C5.42957 12.2487 5.22727 12.2085 5.03852 12.1303C4.84976 12.0521 4.67826 11.9375 4.53379 11.793C4.38933 11.6486 4.27473 11.4771 4.19655 11.2883C4.11837 11.0996 4.07812 10.8973 4.07812 10.6929V5.63778Z" stroke="#FFA800" stroke-linecap="round" stroke-linejoin="round"></path><path d="M2.34033 9.76325C2.16145 9.66127 2.01266 9.51387 1.909 9.33596C1.80535 9.15804 1.7505 8.95591 1.75 8.75V2.91667C1.75 2.275 2.275 1.75 2.91667 1.75H8.75C9.1875 1.75 9.4255 1.97458 9.625 2.33333" stroke="#FFA800" stroke-linecap="round" stroke-linejoin="round"></path></g><defs><clipPath id="clip0_417_56905"><rect width="14" height="14" fill="white"></rect></clipPath></defs></svg>