<svg width="64" height="41" viewBox="0 0 64 41" fill="none" xmlns="http://www.w3.org/2000/svg">
<path d="M17.0153 19.2539C13.4538 19.2539 10.556 22.1515 10.556 25.7132C10.556 29.2748 13.4536 32.1724 17.0153 32.1724C20.577 32.1724 23.4747 29.2748 23.4747 25.7132C23.4747 22.1515 20.577 19.2539 17.0153 19.2539ZM17.0153 29.473C14.9422 29.473 13.2554 27.7863 13.2554 25.7131C13.2554 23.6398 14.9421 21.9531 17.0153 21.9531C19.0885 21.9531 20.7754 23.6398 20.7754 25.7131C20.7754 27.7863 19.0885 29.473 17.0153 29.473Z" fill="url(#paint0_linear_1636_12771)"/>
<path d="M5.19376 24.3652H1.98486V27.0646H5.19376C5.93915 27.0646 6.54343 26.4603 6.54343 25.7149C6.54343 24.9695 5.93927 24.3652 5.19376 24.3652Z" fill="url(#paint1_linear_1636_12771)"/>
<path d="M32.158 24.3652H28.8369C28.0915 24.3652 27.4872 24.9695 27.4872 25.7149C27.4872 26.4603 28.0915 27.0646 28.8369 27.0646H32.158C32.9034 27.0646 33.5077 26.4603 33.5077 25.7149C33.5077 24.9695 32.9034 24.3652 32.158 24.3652Z" fill="url(#paint2_linear_1636_12771)"/>
<path d="M51.091 36.3771C51.6182 36.9042 52.4726 36.9042 52.9998 36.3771C53.5269 35.85 53.5269 34.9954 52.9998 34.4683L52.3591 33.8276H61.9838C62.7292 33.8276 63.3335 33.2233 63.3335 32.4779C63.3335 31.7325 62.7292 31.1283 61.9838 31.1283H52.3591L52.9998 30.4875C53.5269 29.9604 53.5269 29.1058 52.9998 28.5787C52.7363 28.3152 52.3909 28.1834 52.0455 28.1834C51.7001 28.1834 51.3547 28.3152 51.0911 28.5787L48.1464 31.5235C47.6193 32.0506 47.6193 32.9052 48.1464 33.4323L51.091 36.3771Z" fill="url(#paint3_linear_1636_12771)"/>
<path d="M61.9838 18.6128H52.3591L52.9998 17.972C53.5269 17.4449 53.5269 16.5903 52.9998 16.0632C52.7363 15.7997 52.3909 15.6679 52.0455 15.6679C51.7001 15.6679 51.3547 15.7997 51.0911 16.0632L48.1464 19.008C47.6193 19.5351 47.6193 20.3897 48.1464 20.9168L51.0911 23.8615C51.6184 24.3886 52.4727 24.3886 52.9999 23.8615C53.527 23.3344 53.527 22.4798 52.9999 21.9527L52.3592 21.312H61.9838C62.7292 21.312 63.3335 20.7077 63.3335 19.9623C63.3335 19.2169 62.7292 18.6128 61.9838 18.6128Z" fill="url(#paint4_linear_1636_12771)"/>
<path d="M32.2602 5.34255L35.205 8.28729C35.7322 8.81439 36.5865 8.81439 37.1138 8.28729C37.6409 7.76018 37.6409 6.90559 37.1138 6.37849L36.473 5.73776H50.1243C50.8697 5.73776 51.474 5.13348 51.474 4.38809C51.474 3.64271 50.8697 3.03842 50.1243 3.03842H36.473L37.1138 2.3977C37.6409 1.87059 37.6409 1.01601 37.1138 0.488899C36.8502 0.225345 36.5048 0.0935687 36.1594 0.0935687C35.814 0.0935687 35.4686 0.225345 35.2051 0.488899L32.2604 3.43363C31.7331 3.96086 31.7331 4.81545 32.2602 5.34255Z" fill="url(#paint5_linear_1636_12771)"/>
<path d="M43.2741 12.6788C43.2709 11.9356 42.6676 11.3349 41.9245 11.3349H15.483V1.44342C15.483 0.698034 14.8787 0.09375 14.1333 0.09375H7.60556C3.76219 0.09375 0.635254 3.22057 0.635254 7.06393V33.1229C0.635254 36.9662 3.76207 40.093 7.60556 40.093H42.0368C42.3959 40.093 42.7399 39.95 42.9933 39.6956C43.2466 39.4413 43.3881 39.0965 43.3865 38.7375L43.2741 12.6788ZM40.5805 14.0342L40.6039 19.4355C37.8777 18.9031 35.7226 16.7564 35.1788 14.0342H40.5805ZM7.60556 2.79309H12.7836V11.3349H7.60556C5.25051 11.3349 3.33459 9.41898 3.33459 7.06393C3.33459 4.70888 5.25051 2.79309 7.60556 2.79309ZM3.33459 33.1229V12.5667C4.51543 13.4852 5.99712 14.0342 7.60556 14.0342H32.4427C33.0402 18.2512 36.393 21.5918 40.6156 22.1716L40.6462 29.2516C38.579 29.5279 36.6784 30.4708 35.1983 31.9793C33.7458 33.4598 32.8311 35.3467 32.5509 37.3937H7.60556C5.25051 37.3937 3.33459 35.4779 3.33459 33.1229ZM35.2846 37.3937C35.5393 36.0621 36.1709 34.8422 37.125 33.8697C38.0949 32.8811 39.3196 32.2334 40.6578 31.9824L40.6812 37.3937H35.2846Z" fill="black"/>
<defs>
<linearGradient id="paint0_linear_1636_12771" x1="10.556" y1="20.3305" x2="22.4959" y2="32.1726" gradientUnits="userSpaceOnUse">
<stop stop-color="#4F16FF"/>
<stop offset="1" stop-color="#2BADFF"/>
</linearGradient>
<linearGradient id="paint1_linear_1636_12771" x1="1.98486" y1="24.5902" x2="4.18113" y2="28.2688" gradientUnits="userSpaceOnUse">
<stop stop-color="#4F16FF"/>
<stop offset="1" stop-color="#2BADFF"/>
</linearGradient>
<linearGradient id="paint2_linear_1636_12771" x1="27.4872" y1="24.5902" x2="29.3601" y2="28.7333" gradientUnits="userSpaceOnUse">
<stop stop-color="#4F16FF"/>
<stop offset="1" stop-color="#2BADFF"/>
</linearGradient>
<linearGradient id="paint3_linear_1636_12771" x1="63.3335" y1="36.0567" x2="56.5919" y2="23.9262" gradientUnits="userSpaceOnUse">
<stop stop-color="#4F16FF"/>
<stop offset="1" stop-color="#2BADFF"/>
</linearGradient>
<linearGradient id="paint4_linear_1636_12771" x1="63.3335" y1="23.5411" x2="56.592" y2="11.4106" gradientUnits="userSpaceOnUse">
<stop stop-color="#4F16FF"/>
<stop offset="1" stop-color="#2BADFF"/>
</linearGradient>
<linearGradient id="paint5_linear_1636_12771" x1="51.474" y1="7.96686" x2="45.6065" y2="-5.3191" gradientUnits="userSpaceOnUse">
<stop stop-color="#4F16FF"/>
<stop offset="1" stop-color="#2BADFF"/>
</linearGradient>
</defs>
</svg>
