<svg width="44" height="44" viewBox="0 0 44 44" fill="none" xmlns="http://www.w3.org/2000/svg">
<path fill-rule="evenodd" clip-rule="evenodd" d="M33.7572 6.06833C31.9513 5.5 30.3013 5.5 27.0013 5.5H16.9987C13.6987 5.5 12.0487 5.5 10.2447 6.06833C9.28665 6.41913 8.41657 6.97447 7.69501 7.69572C6.97344 8.41697 6.41771 9.2868 6.0665 10.2447C5.5 12.0267 5.5 13.6877 5.5 16.9987V26.9958C5.5 30.3013 5.5 31.9513 6.06833 33.7572C6.41826 34.7155 6.97333 35.5857 7.69471 36.3071C8.41609 37.0285 9.28637 37.5836 10.2447 37.9335C12.0267 38.5 13.6877 38.5 16.9987 38.5H27.0013C30.3013 38.5 31.9513 38.5 33.7572 37.9225C34.7155 37.5726 35.5857 37.0175 36.3071 36.2961C37.0285 35.5747 37.5836 34.7045 37.9335 33.7462C38.5 31.9623 38.5 30.3013 38.5 26.9922V17.0042C38.5 13.6987 38.5 12.0487 37.9317 10.2447C37.5822 9.28621 37.0275 8.41569 36.3064 7.69399C35.5853 6.97229 34.7153 6.41868 33.7572 6.06833ZM28.325 17.7705C28.2643 17.8318 28.1921 17.8805 28.1125 17.9137C28.0328 17.9469 27.9474 17.964 27.8612 17.964C27.7749 17.964 27.6895 17.9469 27.6099 17.9137C27.5303 17.8805 27.458 17.8318 27.3973 17.7705L27.4083 17.7797C26.1633 16.6971 24.572 16.0955 22.9222 16.0838C21.5618 16.0838 20.2052 16.5788 20.2052 17.8255C20.2052 19.0153 21.4482 19.47 22.9643 20.0255L23.3402 20.163C26.279 21.1787 28.7027 22.4272 28.7027 25.3862C28.7027 28.5982 26.268 30.8 22.2732 31.0695L21.912 32.8167C21.8813 32.9713 21.7977 33.1104 21.6756 33.2101C21.5535 33.3098 21.4005 33.3639 21.2428 33.363L18.7422 33.3428C18.6409 33.3411 18.5413 33.3169 18.4505 33.272C18.3597 33.2271 18.28 33.1626 18.2172 33.0831C18.1544 33.0036 18.11 32.9112 18.0873 32.8125C18.0646 32.7138 18.0641 32.6113 18.0858 32.5123L18.469 30.6717C16.9565 30.2733 15.5724 29.4916 14.4503 28.402C14.3849 28.3372 14.333 28.2601 14.2976 28.1752C14.2621 28.0902 14.2439 27.9991 14.2439 27.907C14.2439 27.8149 14.2621 27.7238 14.2976 27.6388C14.333 27.5539 14.3849 27.4768 14.4503 27.412L15.8437 26.0187C15.9695 25.8932 16.1399 25.8227 16.3176 25.8227C16.4953 25.8227 16.6657 25.8932 16.7915 26.0187C18.1317 27.3662 19.8642 27.918 21.5142 27.918C23.3292 27.918 24.5575 27.1663 24.5575 25.8812C24.5575 24.7537 23.5492 24.3742 21.6388 23.6573L20.9972 23.4172C18.5405 22.5353 16.214 21.2502 16.214 18.26C16.214 14.806 19.03 13.1193 22.3502 12.9488L22.7113 11.2072C22.7413 11.0537 22.8234 10.9154 22.9437 10.8155C23.0639 10.7156 23.215 10.6603 23.3713 10.659H25.8647C26.2937 10.659 26.6145 11.0623 26.5247 11.4895L26.1195 13.4493C27.3929 13.8763 28.5701 14.549 29.5845 15.4293C29.8723 15.708 29.8888 16.1718 29.6157 16.4303L28.325 17.7705Z" fill="#BD903F"/>
</svg>
