<svg width="44" height="44" viewBox="0 0 44 44" fill="none" xmlns="http://www.w3.org/2000/svg">
<path d="M26.2545 2.54691C26.4829 2.67623 26.676 2.82517 26.8802 2.98974C27.6222 3.57246 28.447 3.78976 29.3849 3.75311C30.204 3.65032 30.8862 3.25636 31.5094 2.73063C31.74 2.55289 31.9557 2.5315 32.2381 2.52317C32.3004 2.52032 32.3626 2.51748 32.4268 2.51456C33.0777 2.61477 33.5161 3.16618 33.9567 3.61046C34.0349 3.68841 34.1131 3.76632 34.1913 3.84418C34.4026 4.0548 34.6133 4.26614 34.8237 4.47763C35.0446 4.69935 35.2661 4.92049 35.4874 5.14171C35.859 5.51317 36.23 5.88509 36.6008 6.2573C37.029 6.68705 37.4578 7.11613 37.887 7.54484C38.3006 7.95804 38.7138 8.37168 39.1268 8.78552C39.3022 8.96129 39.4778 9.13693 39.6535 9.31244C39.8604 9.51927 40.067 9.72648 40.2733 9.93398C40.3489 10.0099 40.4246 10.0857 40.5005 10.1613C41.4937 11.1521 41.4937 11.1521 41.4983 11.7311C41.4806 12.2253 41.31 12.4445 40.9949 12.8044C40.3907 13.624 40.1388 14.4436 40.2351 15.4637C40.3435 16.1669 40.6638 16.7564 41.1308 17.2908C41.4457 17.6519 41.505 17.9339 41.5187 18.41C41.3153 19.1431 40.5577 19.7215 40.0302 20.2468C39.94 20.3371 39.85 20.4274 39.7599 20.5178C39.5137 20.7646 39.267 21.011 39.0203 21.2572C38.7537 21.5234 38.4876 21.7901 38.2214 22.0567C37.7006 22.5782 37.1792 23.0994 36.6578 23.6204C36.2341 24.0438 35.8105 24.4674 35.387 24.891C35.3266 24.9514 35.2663 25.0117 35.2042 25.0739C35.0816 25.1964 34.9591 25.319 34.8366 25.4416C33.6883 26.5903 32.5396 27.7385 31.3907 28.8866C30.4049 29.8718 29.4194 30.8573 28.4343 31.8432C27.2899 32.9884 26.1453 34.1333 25.0003 35.2778C24.8782 35.3999 24.7562 35.5219 24.6341 35.6439C24.574 35.7039 24.514 35.764 24.4521 35.8258C24.0289 36.2489 23.6058 36.6722 23.1828 37.0956C22.6674 37.6113 22.1519 38.1268 21.6359 38.6419C21.3727 38.9048 21.1096 39.1677 20.8468 39.431C20.6063 39.672 20.3654 39.9126 20.1243 40.1529C20.0371 40.24 19.95 40.3271 19.8631 40.4144C19.7449 40.5331 19.6263 40.6512 19.5075 40.7693C19.4417 40.835 19.3759 40.9008 19.3082 40.9685C18.8737 41.3608 18.5656 41.5172 17.9836 41.4985C17.624 41.4244 17.4008 41.2334 17.119 41.0064C16.377 40.4237 15.5522 40.2064 14.6143 40.243C13.7952 40.3458 13.113 40.7398 12.4898 41.2655C12.2592 41.4433 12.0435 41.4647 11.7611 41.473C11.6989 41.4758 11.6366 41.4787 11.5724 41.4816C10.9215 41.3814 10.4831 40.83 10.0425 40.3857C9.96433 40.3077 9.88614 40.2298 9.80791 40.152C9.59657 39.9414 9.38594 39.73 9.17547 39.5185C8.95461 39.2968 8.73316 39.0757 8.51179 38.8545C8.14025 38.483 7.76917 38.1111 7.39837 37.7389C6.97023 37.3091 6.54142 36.88 6.11223 36.4513C5.69859 36.0381 5.28539 35.6245 4.8724 35.2106C4.69698 35.0349 4.52141 34.8592 4.34573 34.6837C4.13876 34.4769 3.93218 34.2697 3.72588 34.0622C3.6503 33.9863 3.57458 33.9105 3.49873 33.8349C2.50555 32.844 2.50556 32.844 2.50095 32.265C2.51857 31.7709 2.6892 31.5516 3.00432 31.1918C3.60851 30.3722 3.86045 29.5526 3.76413 28.5325C3.65572 27.8292 3.33545 27.2397 2.86839 26.7053C2.55351 26.3442 2.49422 26.0622 2.48047 25.5861C2.68394 24.8531 3.44149 24.2747 3.96906 23.7494C4.05917 23.6591 4.14925 23.5688 4.2393 23.4784C4.48551 23.2316 4.73219 22.9852 4.97895 22.7389C5.24549 22.4727 5.5116 22.2061 5.77776 21.9395C6.29866 21.4179 6.81996 20.8968 7.34141 20.3758C7.76516 19.9523 8.18875 19.5288 8.61224 19.1051C8.70272 19.0146 8.70272 19.0146 8.79502 18.9223C8.91756 18.7997 9.0401 18.6771 9.16264 18.5545C10.3109 17.4058 11.4596 16.2576 12.6085 15.1095C13.5943 14.1244 14.5798 13.1388 15.5649 12.153C16.7093 11.0078 17.8539 9.86285 18.9989 8.71831C19.121 8.5963 19.2431 8.47428 19.3651 8.35227C19.4252 8.29224 19.4852 8.23221 19.5471 8.17036C19.9704 7.74723 20.3934 7.32393 20.8165 6.90056C21.3318 6.38482 21.8473 5.86935 22.3633 5.35423C22.6265 5.0914 22.8896 4.82844 23.1524 4.56515C23.3929 4.32418 23.6338 4.08356 23.8749 3.84322C23.9621 3.75619 24.0492 3.66903 24.1361 3.58173C24.2543 3.46309 24.373 3.34493 24.4917 3.22688C24.5575 3.16113 24.6233 3.09537 24.6911 3.02762C25.1909 2.57642 25.5865 2.40915 26.2545 2.54691ZM30.4985 9.80548C30.4393 9.84686 30.38 9.88824 30.319 9.93088C29.9846 10.1748 29.6549 10.4243 29.327 10.6769C29.1251 10.8318 28.9232 10.9867 28.7197 11.1396C28.5343 11.2801 28.5343 11.2801 28.3758 11.4322C28.0269 11.7454 28.0269 11.7454 27.7639 11.733C27.5573 11.6737 27.3649 11.595 27.1663 11.5127C26.967 11.4433 26.7676 11.375 26.5677 11.3076C26.459 11.2703 26.3503 11.233 26.2416 11.1956C26.1867 11.1767 26.1319 11.1578 26.0753 11.1384C25.9634 11.0997 25.8517 11.0608 25.7401 11.0215C24.7644 10.6416 24.7644 10.6416 23.7614 10.7671C23.5297 10.9591 23.3502 11.1669 23.2153 11.4367C23.1783 11.9394 23.2834 12.3211 23.4533 12.7913C23.5025 12.9334 23.5517 13.0754 23.6008 13.2175C23.6789 13.4394 23.7574 13.6611 23.836 13.8828C23.912 14.098 23.9867 14.3136 24.0612 14.5294C24.0852 14.5957 24.1093 14.662 24.1341 14.7304C24.1554 14.7923 24.1767 14.8542 24.1986 14.918C24.2179 14.9721 24.2371 15.0263 24.2569 15.0822C24.2932 15.3343 24.1649 15.4845 24.0266 15.6862C23.9887 15.7369 23.9507 15.7875 23.9116 15.8397C23.8687 15.8973 23.8258 15.9549 23.7817 16.0142C23.7358 16.0755 23.6899 16.1367 23.6427 16.1998C23.5467 16.3292 23.4509 16.4587 23.3551 16.5883C23.3066 16.6539 23.2581 16.7195 23.2081 16.787C22.9856 17.0887 22.7645 17.3912 22.5457 17.6956C22.507 17.7484 22.4684 17.8012 22.4285 17.8555C22.2422 18.1166 22.0951 18.3249 22.0756 18.6549C22.1499 19.0332 22.2497 19.2997 22.5315 19.5667C23.0178 19.7953 23.4003 19.8158 23.9312 19.7908C24.0843 19.7876 24.2375 19.7848 24.3906 19.7823C24.6293 19.7775 24.8673 19.7709 25.1058 19.759C26.3923 19.6985 26.3923 19.6985 26.7915 19.9822C27.0721 20.2637 27.2722 20.5876 27.4623 20.9346C27.5739 21.1364 27.7049 21.3221 27.838 21.5101C27.9575 21.6894 28.076 21.8692 28.194 22.0494C28.4808 22.4784 28.7716 22.8523 29.2938 22.9858C29.7407 22.9858 29.9765 22.902 30.3068 22.6051C30.5501 22.3149 30.6367 21.9668 30.7422 21.6087C30.7672 21.5289 30.7921 21.4491 30.8179 21.3669C30.8941 21.1219 30.9678 20.8762 31.0414 20.6304C31.0878 20.4796 31.1344 20.3288 31.1812 20.1781C31.398 19.5776 31.398 19.5776 31.4972 18.9588C31.5432 18.9467 31.5892 18.9346 31.6365 18.9222C32.2316 18.7629 32.8214 18.5876 33.4099 18.4058C33.5189 18.3722 33.628 18.339 33.7371 18.3061C33.8975 18.2578 34.0575 18.2085 34.2174 18.159C34.3587 18.1158 34.3587 18.1158 34.5027 18.0717C34.881 17.9262 35.2579 17.734 35.4483 17.3632C35.5291 17.0353 35.5506 16.7674 35.453 16.442C35.0348 15.8589 34.4084 15.4894 33.8212 15.0942C33.7694 15.0571 33.7177 15.02 33.6644 14.9818C33.5101 14.8804 33.3635 14.8002 33.1991 14.7187C32.8382 14.5246 32.4865 14.3317 32.3523 13.9237C32.2689 13.4234 32.2968 12.9195 32.3188 12.415C32.3242 12.1878 32.3281 11.9608 32.331 11.7336C32.3333 11.593 32.3372 11.4525 32.3432 11.312C32.3594 10.7691 32.2833 10.35 31.9151 9.92658C31.5988 9.65771 31.4156 9.56656 31.0079 9.58169C30.7897 9.61699 30.6786 9.67928 30.4985 9.80548ZM14.525 16.6177C14.3582 16.9064 14.2834 17.1817 14.3255 17.5152C14.592 18.0343 14.9584 18.4133 15.3698 18.8213C15.4888 18.9397 15.6064 19.0594 15.7239 19.1794C15.8003 19.2559 15.8769 19.3324 15.9535 19.4088C16.022 19.4774 16.0905 19.5461 16.161 19.6168C16.4393 19.8459 16.7228 20.012 17.0917 20.033C17.5217 19.9407 17.7549 19.7687 18.0242 19.421C18.1611 19.2051 18.2115 19.0638 18.2005 18.8069C17.9863 18.0838 17.3507 17.5621 16.8329 17.0403C16.7818 16.9876 16.7306 16.9349 16.678 16.8806C16.3232 16.5231 15.979 16.1952 15.4652 16.1095C15.075 16.1746 14.8089 16.3561 14.525 16.6177ZM19.3925 21.4282C19.1774 21.7469 19.1626 21.9996 19.1883 22.378C19.3379 22.7424 19.549 22.9994 19.8267 23.2719C19.8662 23.3114 19.9056 23.3509 19.9462 23.3916C20.0292 23.4743 20.1124 23.5568 20.1959 23.639C20.3233 23.7647 20.4497 23.8913 20.576 24.0181C20.657 24.0987 20.7381 24.1792 20.8192 24.2597C20.8568 24.2974 20.8944 24.3351 20.9332 24.3739C21.2319 24.6665 21.4165 24.7969 21.8334 24.8379C22.1758 24.827 22.4234 24.7286 22.6834 24.5055C22.9316 24.2162 23.0487 23.9064 23.0255 23.5185C22.8743 22.9134 22.1946 22.3957 21.7717 21.9743C21.6718 21.8726 21.6718 21.8726 21.5698 21.7688C21.5048 21.7037 21.4398 21.6386 21.3728 21.5716C21.3144 21.513 21.256 21.4544 21.1959 21.394C20.9125 21.1542 20.6599 21.0215 20.29 20.9818C19.8958 21.0241 19.6619 21.1369 19.3925 21.4282ZM12.1232 23.8003C12.0209 23.9024 11.9186 24.0046 11.8163 24.1068C11.6028 24.3201 11.3895 24.5337 11.1764 24.7475C10.9039 25.0208 10.6307 25.2935 10.3573 25.566C10.1463 25.7765 9.93554 25.9874 9.72494 26.1984C9.62436 26.2991 9.52366 26.3997 9.42286 26.5001C9.28195 26.6406 9.14155 26.7816 9.00127 26.9228C8.95998 26.9637 8.91868 27.0047 8.87614 27.0469C8.44663 27.4793 8.44663 27.4793 8.20666 28.0267C8.21254 28.4329 8.27219 28.6729 8.55095 28.9883C8.81677 29.1976 9.04342 29.3601 9.38674 29.3682C9.8805 29.2226 10.1692 29.0213 10.5273 28.658C10.5767 28.6094 10.626 28.5608 10.6769 28.5107C10.8388 28.3509 10.9992 28.1898 11.1595 28.0285C11.2722 27.9163 11.3849 27.8041 11.4977 27.692C11.7334 27.4572 11.9684 27.2217 12.2029 26.9857C12.5028 26.6841 12.8045 26.3844 13.1068 26.0852C13.3399 25.8541 13.5719 25.6219 13.8036 25.3894C13.9144 25.2785 14.0255 25.1679 14.137 25.0577C14.2931 24.9032 14.4476 24.7472 14.6018 24.5909C14.6476 24.5461 14.6934 24.5013 14.7406 24.4552C15.0513 24.1359 15.2395 23.8103 15.3133 23.3657C15.2646 22.9804 15.103 22.7428 14.8099 22.492C14.5329 22.3073 14.3038 22.2275 13.9701 22.2623C13.257 22.4228 12.621 23.3007 12.1232 23.8003ZM16.0948 26.2778C16.0469 26.3253 15.9991 26.3727 15.9497 26.4217C15.7928 26.5776 15.6367 26.7343 15.4807 26.8911C15.3713 27.0004 15.2618 27.1096 15.1524 27.2188C14.9236 27.4472 14.6953 27.676 14.4673 27.9051C14.1753 28.1983 13.8824 28.4905 13.5891 28.7824C13.3632 29.0075 13.1378 29.2332 12.9126 29.459C12.8048 29.567 12.6968 29.6747 12.5887 29.7824C12.4375 29.9329 12.2872 30.0842 12.137 30.2356C12.0924 30.2797 12.0479 30.3237 12.002 30.3691C11.6843 30.6918 11.4718 30.9905 11.3955 31.4482C11.4681 31.9159 11.7324 32.2129 12.1078 32.4882C12.4517 32.5894 12.6928 32.5998 13.0338 32.4835C13.205 32.3607 13.205 32.3607 13.3709 32.2001C13.4374 32.1381 13.5039 32.0761 13.5724 32.0123C14.0004 31.6029 14.4211 31.1864 14.8405 30.7683C14.8889 30.72 14.9374 30.6717 14.9874 30.622C15.243 30.3675 15.4985 30.1127 15.7537 29.8578C16.0165 29.5954 16.28 29.3338 16.5437 29.0723C16.7475 28.8699 16.9508 28.6669 17.154 28.4639C17.2509 28.3672 17.3481 28.2706 17.4454 28.1743C17.5812 28.0398 17.7163 27.9046 17.8512 27.7692C17.8911 27.73 17.931 27.6908 17.9721 27.6504C18.2481 27.3712 18.4807 27.0833 18.5235 26.6828C18.4727 26.2448 18.3733 26.0243 18.0486 25.7212C17.2452 25.2083 16.6708 25.6957 16.0948 26.2778ZM24.1366 26.3385C24.0107 26.6603 23.9862 26.9769 24.0511 27.3168C24.329 27.7745 24.6905 28.1338 25.0671 28.5087C25.1812 28.6225 25.2942 28.7373 25.4072 28.8523C25.4804 28.9257 25.5537 28.999 25.6271 29.0723C25.6928 29.1383 25.7585 29.2042 25.8262 29.2721C26.0772 29.4877 26.3265 29.6555 26.6606 29.6912C27.0986 29.6404 27.3191 29.541 27.6222 29.2163C27.8206 28.9054 27.9149 28.6712 27.8502 28.3045C27.5456 27.7291 27.0897 27.284 26.6297 26.8324C26.5625 26.7649 26.4952 26.6974 26.426 26.6279C25.8692 26.0417 25.8692 26.0417 25.1196 25.8399C24.6756 25.8544 24.4297 26.0063 24.1366 26.3385ZM19.2947 29.5438C19.2468 29.5911 19.1989 29.6385 19.1496 29.6873C18.9924 29.843 18.8358 29.9993 18.6793 30.1557C18.5698 30.2647 18.4602 30.3737 18.3507 30.4827C18.1216 30.7109 17.8928 30.9394 17.6642 31.1681C17.3717 31.4606 17.0781 31.7521 16.7843 32.0434C16.5579 32.268 16.3322 32.4934 16.1067 32.719C15.9988 32.8268 15.8906 32.9343 15.7822 33.0415C15.6305 33.1917 15.4798 33.3428 15.3294 33.4942C15.2847 33.538 15.2401 33.5818 15.1941 33.6269C14.8524 33.9739 14.6337 34.2966 14.6247 34.8009C14.7414 35.1854 14.961 35.4784 15.3085 35.6871C15.5967 35.804 15.8448 35.8057 16.1491 35.7507C16.8183 35.3719 17.3669 34.7069 17.9055 34.1663C18.0079 34.0641 18.1103 33.9618 18.2127 33.8596C18.4261 33.6464 18.6392 33.433 18.8522 33.2193C19.1248 32.9459 19.398 32.6731 19.6715 32.4005C19.8826 32.19 20.0933 31.9791 20.3039 31.7681C20.4046 31.6674 20.5053 31.5667 20.6062 31.4662C20.7469 31.3259 20.8871 31.1851 21.0272 31.0441C21.0894 30.9824 21.0894 30.9824 21.1528 30.9194C21.4621 30.6067 21.7281 30.3229 21.7289 29.8669C21.7158 29.5223 21.6235 29.3266 21.3918 29.0643C21.0763 28.7856 20.8363 28.7259 20.4301 28.72C19.9658 28.8253 19.6198 29.2181 19.2947 29.5438Z" fill="#BD903F"/>
<path d="M30.053 13.0327C30.0553 13.101 30.0553 13.101 30.0576 13.1707C30.0649 13.3796 30.0732 13.5884 30.0815 13.7973C30.0839 13.8689 30.0862 13.9406 30.0886 14.0144C30.1128 14.733 30.1128 14.733 30.4409 15.3558C30.7131 15.5839 30.9975 15.7843 31.2925 15.9817C31.3769 16.039 31.3769 16.039 31.463 16.0973C31.6006 16.1906 31.7384 16.2834 31.8766 16.3759C31.8515 16.4511 31.8264 16.5263 31.8006 16.6038C31.6515 16.6761 31.6515 16.6761 31.4575 16.7371C31.3874 16.7597 31.3174 16.7822 31.2453 16.8055C31.1715 16.8283 31.0978 16.851 31.0218 16.8745C30.8773 16.9204 30.7329 16.9664 30.5884 17.0125C30.5241 17.0326 30.4597 17.0526 30.3934 17.0732C30.3312 17.0938 30.269 17.1145 30.205 17.1357C30.1375 17.1555 30.0701 17.1753 30.0005 17.1956C29.8114 17.2737 29.8114 17.2737 29.7335 17.4619C29.7136 17.5298 29.6937 17.5977 29.6731 17.6676C29.6513 17.7324 29.6295 17.7973 29.607 17.8641C29.5855 17.9322 29.5641 18.0002 29.5419 18.0703C29.5184 18.1445 29.4949 18.2187 29.4707 18.2951C29.4345 18.41 29.4345 18.41 29.3977 18.5271C29.373 18.6051 29.3483 18.6831 29.3229 18.7635C29.2622 18.9553 29.2017 19.1472 29.1412 19.3391C28.8981 19.2363 28.7816 19.1394 28.6408 18.9171C28.6062 18.8641 28.5715 18.8111 28.5358 18.7565C28.465 18.6454 28.3943 18.5342 28.3238 18.4229C28.0819 18.054 27.8458 17.7616 27.4057 17.6237C27.2123 17.5858 27.0266 17.5752 26.8297 17.5675C26.7129 17.5628 26.7129 17.5628 26.5938 17.5579C26.513 17.5549 26.4322 17.5519 26.3489 17.5488C26.2669 17.5456 26.185 17.5423 26.1005 17.5389C25.8984 17.5309 25.6963 17.5231 25.4941 17.5156C25.5965 17.2977 25.7132 17.1104 25.8577 16.9181C25.898 16.8632 25.9383 16.8083 25.9799 16.7518C26.0641 16.6377 26.149 16.5242 26.2345 16.4111C26.4815 16.072 26.644 15.8218 26.6339 15.3881C26.5658 15.0946 26.4718 14.8129 26.3727 14.5286C26.322 14.3786 26.2714 14.2285 26.221 14.0783C26.1982 14.0125 26.1755 13.9466 26.152 13.8788C26.102 13.7165 26.102 13.7165 26.102 13.5646C26.4961 13.6434 26.8635 13.7413 27.2417 13.878C27.7443 14.0449 28.1096 14.1465 28.6049 13.9169C29.0224 13.6812 29.4125 13.415 29.7853 13.1137C29.901 13.0327 29.901 13.0327 30.053 13.0327Z" fill="#BD903F"/>
</svg>
