<svg width="40" height="40" viewBox="0 0 40 40" fill="none" xmlns="http://www.w3.org/2000/svg">
<path d="M3.33398 15.0002C4.66007 15.0002 5.93184 15.5269 6.86952 16.4646C7.8072 17.4023 8.33398 18.6741 8.33398 20.0002C8.33398 21.3262 7.8072 22.598 6.86952 23.5357C5.93184 24.4734 4.66007 25.0002 3.33398 25.0002V28.3335C3.33398 29.2176 3.68517 30.0654 4.31029 30.6905C4.93542 31.3156 5.78326 31.6668 6.66732 31.6668H33.334C34.218 31.6668 35.0659 31.3156 35.691 30.6905C36.3161 30.0654 36.6673 29.2176 36.6673 28.3335V25.0002C35.3412 25.0002 34.0695 24.4734 33.1318 23.5357C32.1941 22.598 31.6673 21.3262 31.6673 20.0002C31.6673 18.6741 32.1941 17.4023 33.1318 16.4646C34.0695 15.5269 35.3412 15.0002 36.6673 15.0002V11.6668C36.6673 10.7828 36.3161 9.93493 35.691 9.30981C35.0659 8.68469 34.218 8.3335 33.334 8.3335H6.66732C5.78326 8.3335 4.93542 8.68469 4.31029 9.30981C3.68517 9.93493 3.33398 10.7828 3.33398 11.6668V15.0002Z" stroke="#BD903F" stroke-width="3.33333" stroke-linecap="round" stroke-linejoin="round"/>
<path d="M15 15H15.0167" stroke="#BD903F" stroke-width="3.33333" stroke-linecap="round" stroke-linejoin="round"/>
<path d="M25 15L15 25" stroke="#BD903F" stroke-width="3.33333" stroke-linecap="round" stroke-linejoin="round"/>
<path d="M25 25H25.0167" stroke="#BD903F" stroke-width="3.33333" stroke-linecap="round" stroke-linejoin="round"/>
</svg>
