<svg width="44" height="45" viewBox="0 0 44 45" fill="none" xmlns="http://www.w3.org/2000/svg">
<g clip-path="url(#clip0_1511_97)">
<path fill-rule="evenodd" clip-rule="evenodd" d="M21.8948 2.43408C17.6617 2.43408 14.3452 2.43408 11.7565 2.78242C9.10918 3.13808 7.01918 3.88242 5.37835 5.52142C3.73752 7.16225 2.99502 9.25225 2.63935 11.9014C2.29102 14.4882 2.29102 17.8047 2.29102 22.0379V22.2469C2.29102 26.4801 2.29102 29.7966 2.63935 32.3852C2.99502 35.0326 3.73935 37.1226 5.37835 38.7634C7.01918 40.4042 9.10918 41.1467 11.7583 41.5024C14.3452 41.8507 17.6617 41.8507 21.8948 41.8507H22.1038C26.337 41.8507 29.6535 41.8507 32.2422 41.5024C34.8895 41.1467 36.9795 40.4024 38.6203 38.7634C40.2612 37.1226 41.0037 35.0326 41.3593 32.3834C41.7077 29.7966 41.7077 26.4801 41.7077 22.2469V22.0379C41.7077 17.8047 41.7077 14.4882 41.3593 11.8996C41.0037 9.25225 40.2593 7.16225 38.6203 5.52142C36.9795 3.88058 34.8895 3.13808 32.2404 2.78242C29.6535 2.43408 26.337 2.43408 22.1038 2.43408H21.8948ZM20.6243 5.18408C16.9687 5.18775 14.2498 5.22075 12.125 5.50675C9.78018 5.82208 8.36668 6.42342 7.32168 7.46658C6.27852 8.51158 5.67902 9.92325 5.36368 12.2681C5.07952 14.3929 5.04468 17.1117 5.04102 20.7674H12.675C12.0173 19.9446 11.5446 18.9898 11.289 17.9679C10.3008 14.0207 13.8777 10.4439 17.8248 11.4321C18.8467 11.6877 19.8016 12.1604 20.6243 12.8181V5.18408ZM5.04102 23.5174C5.04468 27.1731 5.07768 29.8919 5.36368 32.0167C5.67902 34.3616 6.28035 35.7751 7.32352 36.8201C8.36852 37.8633 9.78018 38.4627 12.125 38.7781C14.2498 39.0622 16.9687 39.0971 20.6243 39.1007V26.0364C19.901 27.4834 18.7888 28.7003 17.4126 29.5507C16.0363 30.401 14.4504 30.8512 12.8327 30.8507C12.468 30.8507 12.1183 30.7059 11.8604 30.448C11.6025 30.1902 11.4577 29.8404 11.4577 29.4757C11.4577 29.1111 11.6025 28.7613 11.8604 28.5035C12.1183 28.2456 12.468 28.1007 12.8327 28.1007C14.1741 28.101 15.4763 27.6487 16.5287 26.8169C17.5811 25.9851 18.322 24.8226 18.6315 23.5174H5.04102ZM23.3743 39.1007C27.03 39.0971 29.7488 39.0641 31.8737 38.7781C34.2185 38.4627 35.632 37.8614 36.677 36.8182C37.7202 35.7732 38.3197 34.3616 38.635 32.0167C38.9192 29.8919 38.954 27.1731 38.9577 23.5174H25.3672C25.6767 24.8226 26.4176 25.9851 27.47 26.8169C28.5224 27.6487 29.8246 28.101 31.166 28.1007C31.5307 28.1007 31.8804 28.2456 32.1383 28.5035C32.3962 28.7613 32.541 29.1111 32.541 29.4757C32.541 29.8404 32.3962 30.1902 32.1383 30.448C31.8804 30.7059 31.5307 30.8507 31.166 30.8507C29.5483 30.8512 27.9624 30.401 26.5861 29.5507C25.2099 28.7003 24.0977 27.4834 23.3743 26.0364V39.1007ZM38.9577 20.7674H31.3237C31.982 19.9448 32.4554 18.9899 32.7115 17.9679C33.6979 14.0207 30.121 10.4439 26.1757 11.4321C25.1532 11.6874 24.1977 12.1602 23.3743 12.8181V5.18408C27.03 5.18775 29.7488 5.22075 31.8737 5.50675C34.2185 5.82208 35.632 6.42342 36.677 7.46658C37.7202 8.51158 38.3197 9.92325 38.635 12.2681C38.9192 14.3929 38.954 17.1117 38.9577 20.7674ZM23.3743 20.7674V18.5307C23.3775 17.5119 23.72 16.5231 24.3479 15.7206C24.9757 14.9182 25.853 14.3478 26.8412 14.0996C27.2834 13.9891 27.7466 13.9951 28.1859 14.1168C28.6251 14.2385 29.0253 14.4719 29.3476 14.7942C29.6699 15.1164 29.9033 15.5167 30.025 15.9559C30.1467 16.3951 30.1526 16.8584 30.0422 17.3006C29.7941 18.2882 29.2243 19.165 28.4226 19.7928C27.6209 20.4206 26.6329 20.7635 25.6147 20.7674H23.3743ZM20.6243 18.5252C20.62 17.5073 20.2769 16.5198 19.6492 15.7185C19.0214 14.9171 18.1448 14.3475 17.1575 14.0996C16.7153 13.9891 16.2521 13.9951 15.8128 14.1168C15.3736 14.2385 14.9734 14.4719 14.6511 14.7942C14.3288 15.1164 14.0954 15.5167 13.9737 15.9559C13.852 16.3951 13.8461 16.8584 13.9565 17.3006C14.2046 18.2882 14.7744 19.165 15.5761 19.7928C16.3778 20.4206 17.3658 20.7635 18.384 20.7674H20.6243V18.5252Z" fill="#BD903F"/>
<rect x="26.5833" y="26.7259" width="18.3333" height="18.3333" rx="9.16667" fill="white"/>
<rect x="26.5833" y="26.7259" width="18.3333" height="18.3333" rx="9.16667" stroke="white" stroke-width="1.83333"/>
<path d="M44 35.8926C44 38.0806 43.1308 40.179 41.5836 41.7262C40.0365 43.2734 37.938 44.1426 35.75 44.1426C33.562 44.1426 31.4635 43.2734 29.9164 41.7262C28.3692 40.179 27.5 38.0806 27.5 35.8926C27.5 33.7045 28.3692 31.6061 29.9164 30.0589C31.4635 28.5118 33.562 27.6426 35.75 27.6426C37.938 27.6426 40.0365 28.5118 41.5836 30.0589C43.1308 31.6061 44 33.7045 44 35.8926ZM40.0638 36.5416L40.0693 36.5361C40.2371 36.3659 40.3319 36.137 40.3333 35.8981V35.8871C40.3318 35.6463 40.2357 35.4159 40.0657 35.2454L36.399 31.5787C36.2271 31.4066 35.9939 31.3098 35.7506 31.3097C35.5074 31.3095 35.274 31.4059 35.1019 31.5778C34.9298 31.7497 34.833 31.9829 34.8328 32.2262C34.8327 32.4694 34.9291 32.7028 35.101 32.8749L37.2038 34.9759H32.0833C31.8402 34.9759 31.6071 35.0725 31.4352 35.2444C31.2632 35.4163 31.1667 35.6495 31.1667 35.8926C31.1667 36.1357 31.2632 36.3689 31.4352 36.5408C31.6071 36.7127 31.8402 36.8092 32.0833 36.8092H37.2038L35.101 38.9102C34.9289 39.0824 34.8322 39.3158 34.8322 39.5592C34.8322 39.8027 34.9289 40.0361 35.101 40.2082C35.2731 40.3804 35.5066 40.4771 35.75 40.4771C35.9934 40.4771 36.2269 40.3804 36.399 40.2082L40.0638 36.5416Z" fill="#BD903F"/>
</g>
<defs>
<clipPath id="clip0_1511_97">
<rect width="44" height="44" fill="white" transform="translate(0 0.14209)"/>
</clipPath>
</defs>
</svg>
