<svg width="45" height="45" viewBox="0 0 45 45" fill="none" xmlns="http://www.w3.org/2000/svg">
<g clip-path="url(#clip0_1511_101)">
<path fill-rule="evenodd" clip-rule="evenodd" d="M22.2477 2.43408C26.4809 2.43408 29.7974 2.43408 32.3861 2.78242C35.0334 3.13808 37.1234 3.88242 38.7642 5.52142C40.4051 7.16225 41.1476 9.25225 41.5032 11.9014C41.8516 14.4882 41.8516 17.8047 41.8516 22.0379V22.2469C41.8516 26.4801 41.8516 29.7966 41.5032 32.3852C41.1476 35.0326 40.4032 37.1226 38.7642 38.7634C37.1234 40.4042 35.0334 41.1467 32.3842 41.5024C29.7974 41.8507 26.4809 41.8507 22.2477 41.8507H22.0387C17.8056 41.8507 14.4891 41.8507 11.9004 41.5024C9.25306 41.1467 7.16306 40.4024 5.52223 38.7634C3.8814 37.1226 3.1389 35.0326 2.78323 32.3834C2.4349 29.7966 2.43489 26.4801 2.43489 22.2469V22.0379C2.43489 17.8047 2.4349 14.4882 2.78323 11.8996C3.1389 9.25225 3.88323 7.16225 5.52223 5.52142C7.16306 3.88058 9.25306 3.13808 11.9022 2.78242C14.4891 2.43408 17.8056 2.43408 22.0387 2.43408H22.2477ZM23.5182 5.18408C27.1739 5.18775 29.8927 5.22075 32.0176 5.50675C34.3624 5.82208 35.7759 6.42342 36.8209 7.46658C37.8641 8.51158 38.4636 9.92325 38.7789 12.2681C39.0631 14.3929 39.0979 17.1117 39.1016 20.7674H31.4676C32.1253 19.9446 32.598 18.9898 32.8536 17.9679C33.8417 14.0207 30.2649 10.4439 26.3177 11.4321C25.2959 11.6877 24.341 12.1604 23.5182 12.8181V5.18408ZM39.1016 23.5174C39.0979 27.1731 39.0649 29.8919 38.7789 32.0167C38.4636 34.3616 37.8622 35.7751 36.8191 36.8201C35.7741 37.8633 34.3624 38.4627 32.0176 38.7781C29.8927 39.0622 27.1739 39.0971 23.5182 39.1007V26.0364C24.2416 27.4834 25.3538 28.7003 26.73 29.5507C28.1062 30.401 29.6921 30.8512 31.3099 30.8507C31.6746 30.8507 32.0243 30.7059 32.2822 30.448C32.54 30.1902 32.6849 29.8404 32.6849 29.4757C32.6849 29.1111 32.54 28.7613 32.2822 28.5035C32.0243 28.2456 31.6746 28.1007 31.3099 28.1007C29.9685 28.101 28.6663 27.6487 27.6139 26.8169C26.5615 25.9851 25.8206 24.8226 25.5111 23.5174H39.1016ZM20.7682 39.1007C17.1126 39.0971 14.3937 39.0641 12.2689 38.7781C9.92406 38.4627 8.51056 37.8614 7.46556 36.8182C6.42239 35.7732 5.8229 34.3616 5.50756 32.0167C5.2234 29.8919 5.18856 27.1731 5.1849 23.5174H18.7754C18.4658 24.8226 17.7249 25.9851 16.6726 26.8169C15.6202 27.6487 14.318 28.101 12.9766 28.1007C12.6119 28.1007 12.2622 28.2456 12.0043 28.5035C11.7464 28.7613 11.6016 29.1111 11.6016 29.4757C11.6016 29.8404 11.7464 30.1902 12.0043 30.448C12.2622 30.7059 12.6119 30.8507 12.9766 30.8507C14.5943 30.8512 16.1802 30.401 17.5564 29.5507C18.9327 28.7003 20.0448 27.4834 20.7682 26.0364V39.1007ZM5.1849 20.7674H12.8189C12.1605 19.9448 11.6872 18.9899 11.4311 17.9679C10.4447 14.0207 14.0216 10.4439 17.9669 11.4321C18.9894 11.6874 19.9449 12.1602 20.7682 12.8181V5.18408C17.1126 5.18775 14.3937 5.22075 12.2689 5.50675C9.92406 5.82208 8.51056 6.42342 7.46556 7.46658C6.42239 8.51158 5.8229 9.92325 5.50756 12.2681C5.2234 14.3929 5.18856 17.1117 5.1849 20.7674ZM20.7682 20.7674V18.5307C20.7651 17.5119 20.4226 16.5231 19.7947 15.7206C19.1669 14.9182 18.2896 14.3478 17.3014 14.0996C16.8592 13.9891 16.3959 13.9951 15.9567 14.1168C15.5175 14.2385 15.1173 14.4719 14.795 14.7942C14.4727 15.1164 14.2393 15.5167 14.1176 15.9559C13.9959 16.3951 13.99 16.8584 14.1004 17.3006C14.3484 18.2882 14.9183 19.165 15.72 19.7928C16.5217 20.4206 17.5097 20.7635 18.5279 20.7674H20.7682ZM23.5182 18.5252C23.5226 17.5073 23.8657 16.5198 24.4934 15.7185C25.1211 14.9171 25.9978 14.3475 26.9851 14.0996C27.4273 13.9891 27.8905 13.9951 28.3297 14.1168C28.769 14.2385 29.1692 14.4719 29.4915 14.7942C29.8138 15.1164 30.0471 15.5167 30.1689 15.9559C30.2906 16.3951 30.2965 16.8584 30.1861 17.3006C29.938 18.2882 29.3682 19.165 28.5665 19.7928C27.7647 20.4206 26.7768 20.7635 25.7586 20.7674H23.5182V18.5252Z" fill="#BD903F"/>
<rect x="0.916667" y="-0.916667" width="18.3333" height="18.3333" rx="9.16667" transform="matrix(-1 0 0 1 18.4759 27.6421)" fill="white"/>
<rect x="0.916667" y="-0.916667" width="18.3333" height="18.3333" rx="9.16667" transform="matrix(-1 0 0 1 18.4759 27.6421)" stroke="white" stroke-width="1.83333"/>
<path d="M0.14258 35.8921C0.14258 38.0801 1.01177 40.1785 2.55895 41.7257C4.10612 43.2729 6.20454 44.1421 8.39258 44.1421C10.5806 44.1421 12.679 43.2729 14.2262 41.7257C15.7734 40.1785 16.6426 38.0801 16.6426 35.8921C16.6426 33.7041 15.7734 31.6056 14.2262 30.0585C12.679 28.5113 10.5806 27.6421 8.39258 27.6421C6.20454 27.6421 4.10612 28.5113 2.55895 30.0585C1.01177 31.6056 0.14258 33.7041 0.14258 35.8921ZM4.07875 36.5411L4.07324 36.5356C3.90545 36.3655 3.81073 36.1365 3.80925 35.8976V35.8866C3.81075 35.6459 3.90689 35.4154 4.07691 35.2449L7.74358 31.5783C7.91546 31.4061 8.14868 31.3093 8.39193 31.3092C8.63518 31.309 8.86854 31.4055 9.04066 31.5773C9.21279 31.7492 9.30958 31.9824 9.30976 32.2257C9.30993 32.4689 9.21346 32.7023 9.04158 32.8744L6.93875 34.9754H12.0592C12.3024 34.9754 12.5355 35.072 12.7074 35.2439C12.8793 35.4158 12.9759 35.649 12.9759 35.8921C12.9759 36.1352 12.8793 36.3684 12.7074 36.5403C12.5355 36.7122 12.3024 36.8088 12.0592 36.8088H6.93875L9.04158 38.9098C9.2137 39.0819 9.3104 39.3153 9.3104 39.5588C9.3104 39.8022 9.2137 40.0356 9.04158 40.2078C8.86945 40.3799 8.636 40.4766 8.39258 40.4766C8.14916 40.4766 7.9157 40.3799 7.74358 40.2078L4.07875 36.5411Z" fill="#BD903F"/>
</g>
<defs>
<clipPath id="clip0_1511_101">
<rect width="44" height="44" fill="white" transform="matrix(-1 0 0 1 44.1426 0.14209)"/>
</clipPath>
</defs>
</svg>
