<svg width="25" height="24" viewBox="0 0 25 24" fill="none" xmlns="http://www.w3.org/2000/svg">
<g clip-path="url(#clip0_702_4071)">
<path d="M7.01367 9.66724C7.01367 8.95991 7.29466 8.28155 7.79482 7.78139C8.29498 7.28123 8.97334 7.00024 9.68067 7.00024H18.3467C18.6969 7.00024 19.0437 7.06923 19.3673 7.20326C19.6909 7.33729 19.9849 7.53374 20.2325 7.78139C20.4802 8.02904 20.6766 8.32305 20.8107 8.64663C20.9447 8.9702 21.0137 9.31701 21.0137 9.66724V18.3332C21.0137 18.6835 20.9447 19.0303 20.8107 19.3539C20.6766 19.6774 20.4802 19.9714 20.2325 20.2191C19.9849 20.4668 19.6909 20.6632 19.3673 20.7972C19.0437 20.9313 18.6969 21.0002 18.3467 21.0002H9.68067C9.33044 21.0002 8.98363 20.9313 8.66006 20.7972C8.33648 20.6632 8.04247 20.4668 7.79482 20.2191C7.54716 19.9714 7.35071 19.6774 7.21669 19.3539C7.08266 19.0303 7.01367 18.6835 7.01367 18.3332V9.66724Z" stroke="#201611" stroke-width="1.71429" stroke-linecap="round" stroke-linejoin="round"/>
<path d="M4.02567 16.737C3.71901 16.5622 3.46394 16.3095 3.28625 16.0045C3.10855 15.6995 3.01452 15.353 3.01367 15V5C3.01367 3.9 3.91367 3 5.01367 3H15.0137C15.7637 3 16.1717 3.385 16.5137 4" stroke="#201611" stroke-width="1.71429" stroke-linecap="round" stroke-linejoin="round"/>
</g>
<defs>
<clipPath id="clip0_702_4071">
<rect width="24" height="24" fill="white" transform="translate(0.0136719)"/>
</clipPath>
</defs>
</svg>
