<svg width="40" height="40" viewBox="0 0 16 16" fill="none" xmlns="http://www.w3.org/2000/svg">
<g clip-path="url(#clip0_1629_12733)">
<path d="M15.7958 8.9885C13.806 8.10409 11.7881 8.10409 9.79824 8.9885C9.67412 9.04366 9.59412 9.16678 9.59412 9.30263V11.2568C9.59412 13.2932 10.7966 15.1434 12.6574 15.9705C12.7018 15.9902 12.7494 16.0001 12.797 16.0001C12.8446 16.0001 12.8922 15.9902 12.9366 15.9705C14.7975 15.1434 16 13.2932 16 11.2568V9.30263C16 9.16675 15.92 9.04366 15.7958 8.9885ZM15.3125 11.2568C15.3125 12.9703 14.3301 14.5317 12.797 15.2773C11.2639 14.5317 10.2816 12.9703 10.2816 11.2568V9.52947C11.952 8.84372 13.6421 8.84372 15.3125 9.52947V11.2568Z" fill="url(#paint0_linear_1629_12733)"/>
<path d="M12.0292 11.9192C11.8949 11.7849 11.6774 11.7849 11.5431 11.9192C11.4088 12.0534 11.4088 12.2711 11.5431 12.4053L12.217 13.0792C12.2841 13.1463 12.3721 13.1799 12.46 13.1799C12.548 13.1799 12.636 13.1463 12.7031 13.0792L14.0509 11.7314C14.1852 11.5971 14.1852 11.3795 14.0509 11.2452C13.9167 11.111 13.6991 11.111 13.5648 11.2452L12.46 12.35L12.0292 11.9192Z" fill="url(#paint1_linear_1629_12733)"/>
<path d="M8.31201 8.60348V8.24948C8.31201 7.23857 7.7161 6.36454 6.85732 5.95923C7.166 5.66498 7.35894 5.25035 7.35894 4.79126C7.35894 3.90101 6.63469 3.17676 5.74444 3.17676C4.85419 3.17676 4.12994 3.90101 4.12994 4.79126C4.12994 5.25035 4.32288 5.66501 4.63157 5.95923C3.77279 6.36454 3.17688 7.23857 3.17688 8.24948V8.60348C3.17688 8.79332 3.33079 8.94723 3.52063 8.94723H7.96826C8.15813 8.94723 8.31201 8.79335 8.31201 8.60348ZM5.74447 3.86426C6.2556 3.86426 6.67147 4.2801 6.67147 4.79126C6.67147 5.30238 6.25563 5.71826 5.74447 5.71826C5.23332 5.71826 4.81747 5.30241 4.81747 4.79126C4.81747 4.2801 5.23332 3.86426 5.74447 3.86426ZM7.62451 8.25973H3.86441V8.24948C3.86441 7.23282 4.69151 6.40573 5.70816 6.40573H5.78079C6.79744 6.40573 7.62454 7.23282 7.62454 8.24948L7.62451 8.25973Z" fill="black"/>
<path d="M3.83826 12.7598H7.65051C7.84035 12.7598 7.99426 12.6059 7.99426 12.416C7.99426 12.2262 7.84035 12.0723 7.65051 12.0723H3.83826C3.64841 12.0723 3.49451 12.2262 3.49451 12.416C3.49451 12.6059 3.64838 12.7598 3.83826 12.7598Z" fill="black"/>
<path d="M11.4889 8.45094V3.52063C11.4888 3.43034 11.4521 3.34141 11.3882 3.27756L8.21131 0.100687C8.14747 0.0367187 8.0585 0.000125 7.96825 0H1.29681C0.58175 0 0 0.58175 0 1.29681V13.3689C0 14.084 0.58175 14.6657 1.29681 14.6657H10.8825C10.6935 14.4509 10.5232 14.2207 10.3725 13.9782H1.29681C0.960844 13.9782 0.6875 13.7049 0.6875 13.3689V1.29681C0.6875 0.960844 0.960844 0.6875 1.29681 0.6875H7.62447V2.56756C7.62447 3.28263 8.20622 3.86438 8.92128 3.86438H10.8013V8.61872C11.0303 8.55134 11.2595 8.49506 11.4889 8.45094ZM8.92128 3.17688C8.58531 3.17688 8.31197 2.90353 8.31197 2.56756V1.17362L10.3152 3.17688H8.92128Z" fill="black"/>
<path d="M3.83838 10.8535C4.02823 10.8535 4.18213 10.6996 4.18213 10.5098C4.18213 10.3199 4.02823 10.166 3.83838 10.166C3.64853 10.166 3.49463 10.3199 3.49463 10.5098C3.49463 10.6996 3.64853 10.8535 3.83838 10.8535Z" fill="black"/>
<path d="M5.74438 10.8535C5.93423 10.8535 6.08813 10.6996 6.08813 10.5098C6.08813 10.3199 5.93423 10.166 5.74438 10.166C5.55454 10.166 5.40063 10.3199 5.40063 10.5098C5.40063 10.6996 5.55454 10.8535 5.74438 10.8535Z" fill="black"/>
<path d="M7.6506 10.8535C7.84043 10.8535 7.99432 10.6996 7.99432 10.5097C7.99432 10.3199 7.84043 10.166 7.6506 10.166C7.46077 10.166 7.30688 10.3199 7.30688 10.5097C7.30688 10.6996 7.46077 10.8535 7.6506 10.8535Z" fill="black"/>
</g>
<defs>
<linearGradient id="paint0_linear_1629_12733" x1="9.59412" y1="8.96477" x2="16.563" y2="14.7337" gradientUnits="userSpaceOnUse">
<stop stop-color="#4F16FF"/>
<stop offset="1" stop-color="#2BADFF"/>
</linearGradient>
<linearGradient id="paint1_linear_1629_12733" x1="11.4424" y1="11.3141" x2="13.2533" y2="13.7049" gradientUnits="userSpaceOnUse">
<stop stop-color="#4F16FF"/>
<stop offset="1" stop-color="#2BADFF"/>
</linearGradient>
<clipPath id="clip0_1629_12733">
<rect width="16" height="16" fill="white"/>
</clipPath>
</defs>
</svg>
