<svg width="44" height="44" viewBox="0 0 44 44" fill="none" xmlns="http://www.w3.org/2000/svg">
<path d="M17.74 20.3604C17.8138 20.3594 17.8875 20.3584 17.9636 20.3574C21.1567 20.3232 25.0961 20.723 27.6252 22.9391C28.0979 23.486 28.1159 24.0454 28.0665 24.7472C27.9726 25.2874 27.8541 25.5493 27.4206 25.887C27.237 26.0116 27.0534 26.1361 26.8697 26.2605C25.2075 27.7264 23.9541 30.08 23.8125 32.3187C23.7665 34.4816 23.9113 36.6362 25.2488 38.4431C25.5314 38.8633 25.4751 39.2581 25.4083 39.7446C25.2624 40.482 25.0614 40.9182 24.4383 41.3557C24.1202 41.5148 23.7801 41.472 23.4308 41.4719C23.3467 41.4723 23.2625 41.4727 23.1758 41.4731C22.8923 41.4742 22.6087 41.4746 22.3251 41.4749C22.1225 41.4756 21.9198 41.4763 21.7172 41.477C21.1654 41.4787 20.6136 41.4798 20.0618 41.4806C19.7173 41.4812 19.3728 41.4818 19.0282 41.4824C17.9508 41.4843 16.8734 41.4858 15.796 41.4866C14.5512 41.4876 13.3065 41.4903 12.0618 41.4944C11.1004 41.4974 10.139 41.4989 9.17759 41.4993C8.60307 41.4995 8.02856 41.5004 7.45404 41.503C6.91353 41.5053 6.37306 41.5057 5.83255 41.5047C5.63415 41.5047 5.43574 41.5053 5.23735 41.5067C4.96647 41.5085 4.6957 41.5078 4.42482 41.5064C4.34632 41.5075 4.26781 41.5087 4.18692 41.5098C3.66105 41.5035 3.36684 41.3815 2.96062 41.0518C2.44227 40.5017 2.49807 39.9218 2.50512 39.2076C2.50498 39.0869 2.50483 38.9661 2.50468 38.8417C2.50485 38.5859 2.50602 38.3301 2.50812 38.0743C2.51102 37.6888 2.51021 37.3034 2.50888 36.9179C2.51031 35.1982 2.61675 33.5699 3.13791 31.9212C3.16393 31.8373 3.18994 31.7534 3.21674 31.6669C4.58094 27.3917 7.56085 24.0466 11.5018 21.9675C13.4033 21.0129 15.6065 20.3844 17.74 20.3604Z" fill="#BD903F"/>
<path d="M23.742 4.14347C23.874 4.2539 24.0048 4.36588 24.1346 4.47906C24.2326 4.55729 24.3307 4.63551 24.4318 4.71611C25.4044 5.52801 26.0167 6.65823 26.4647 7.82228C26.5087 7.93499 26.5527 8.04769 26.598 8.16381C27.2584 10.1909 26.996 12.4549 26.0784 14.3441C25.7635 14.9609 25.3991 15.504 24.945 16.0284C24.8846 16.1087 24.8241 16.189 24.7618 16.2718C23.9311 17.2565 22.7912 17.9072 21.6018 18.3585C21.4892 18.4024 21.3767 18.4463 21.2607 18.4915C19.2344 19.1531 16.9686 18.8897 15.08 17.9723C14.4635 17.6572 13.9183 17.2949 13.3957 16.8389C13.2976 16.7606 13.1996 16.6824 13.0985 16.6018C12.1259 15.7899 11.5135 14.6597 11.0656 13.4956C10.9996 13.3266 10.9996 13.3266 10.9322 13.1541C10.2719 11.1271 10.5342 8.86294 11.4518 6.97382C11.7669 6.35734 12.1292 5.81217 12.5852 5.28954C12.6635 5.19146 12.7417 5.09339 12.8223 4.99234C13.6342 4.01971 14.7644 3.40736 15.9285 2.95941C16.0412 2.9154 16.1539 2.87139 16.27 2.82605C18.7707 2.01139 21.6687 2.55023 23.742 4.14347Z" fill="#BD903F"/>
<path d="M38.0993 26.6592C38.3137 26.8246 38.5195 26.9953 38.7241 27.1725C38.8464 27.265 38.8464 27.265 38.9711 27.3593C40.2549 28.4396 41.2638 30.3797 41.4595 32.0354C41.636 34.4158 41.2806 36.6424 39.7107 38.52C39.6526 38.5866 39.5945 38.6532 39.5346 38.7218C39.4561 38.82 39.3776 38.9183 39.2968 39.0194C38.0307 40.5356 35.9982 41.3391 34.0803 41.5234C31.8591 41.6965 29.6982 41.0247 27.9916 39.5956C26.5155 38.3048 25.59 36.6 25.2499 34.6694C25.0965 32.3141 25.4069 30.0609 26.9758 28.2003C27.0414 28.1286 27.1071 28.0569 27.1748 27.983C27.2583 27.8915 27.3417 27.7999 27.4277 27.7056C28.321 26.7692 29.3102 26.1156 30.518 25.6529C30.6221 25.6129 30.7262 25.573 30.8334 25.5318C33.2856 24.7375 35.9941 25.2219 38.0993 26.6592ZM32.006 30.9147C31.7211 31.4318 31.7128 31.9353 31.7084 32.5166C31.7063 32.584 31.7043 32.6514 31.7021 32.7208C31.6955 33.5773 31.905 34.1597 32.4964 34.7894C32.6775 34.9684 32.8603 35.1458 33.0445 35.3216C33.1363 35.4125 33.2282 35.5033 33.3229 35.5969C34.025 36.3114 34.025 36.3114 34.963 36.531C35.4502 36.5196 35.7207 36.422 36.0901 36.0878C36.4167 35.7268 36.5245 35.4505 36.546 34.9734C36.5212 34.4844 36.419 34.2349 36.0901 33.859C36.0091 33.7913 35.9281 33.7237 35.8447 33.654C35.2514 33.1378 34.9961 32.7843 34.9377 32.0101C34.9341 31.9077 34.9341 31.9077 34.9305 31.8033C34.9105 31.2934 34.7862 31.0146 34.4691 30.6171C34.0284 30.2183 33.667 30.1471 33.0912 30.173C32.5789 30.2548 32.3169 30.5198 32.006 30.9147Z" fill="#BD903F"/>
</svg>
