<svg width="44" height="44" viewBox="0 0 44 44" fill="none" xmlns="http://www.w3.org/2000/svg">
<path d="M36.666 11.0002H32.6693C32.871 10.4319 32.9993 9.80856 32.9993 9.1669C33.0013 7.98408 32.6214 6.83222 31.9162 5.88265C31.2109 4.93309 30.2179 4.23657 29.085 3.89669C27.9521 3.5568 26.7397 3.59173 25.6282 3.99626C24.5167 4.40079 23.5655 5.15332 22.916 6.1419L21.9993 7.37023L21.0827 6.12356C20.0927 4.6569 18.4243 3.6669 16.4993 3.6669C13.456 3.6669 10.9993 6.12356 10.9993 9.1669C10.9993 9.80856 11.1277 10.4319 11.3293 11.0002H7.33268C5.29768 11.0002 3.68435 12.6319 3.68435 14.6669L3.66602 34.8336C3.66602 36.8686 5.29768 38.5002 7.33268 38.5002H36.666C38.701 38.5002 40.3327 36.8686 40.3327 34.8336V14.6669C40.3327 12.6319 38.701 11.0002 36.666 11.0002ZM27.4993 7.33356C28.5077 7.33356 29.3327 8.15856 29.3327 9.1669C29.3327 10.1752 28.5077 11.0002 27.4993 11.0002C26.491 11.0002 25.666 10.1752 25.666 9.1669C25.666 8.15856 26.491 7.33356 27.4993 7.33356ZM16.4993 7.33356C17.5077 7.33356 18.3327 8.15856 18.3327 9.1669C18.3327 10.1752 17.5077 11.0002 16.4993 11.0002C15.491 11.0002 14.666 10.1752 14.666 9.1669C14.666 8.15856 15.491 7.33356 16.4993 7.33356ZM34.8327 34.8336H9.16602C8.15768 34.8336 7.33268 34.0086 7.33268 33.0002V31.1669H36.666V33.0002C36.666 34.0086 35.841 34.8336 34.8327 34.8336ZM36.666 25.6669H7.33268V16.5002C7.33268 15.4919 8.15768 14.6669 9.16602 14.6669H16.646L13.9327 18.3702C13.789 18.5646 13.6853 18.7856 13.6277 19.0204C13.5702 19.2552 13.5599 19.4991 13.5974 19.7379C13.6349 19.9768 13.7195 20.2057 13.8463 20.4116C13.9731 20.6174 14.1396 20.796 14.336 20.9369C15.1427 21.5236 16.2977 21.3402 16.8843 20.5336L21.9993 13.5669L27.1143 20.5336C27.701 21.3402 28.856 21.5236 29.6627 20.9369C30.4877 20.3502 30.671 19.1952 30.066 18.3702L27.3527 14.6669H34.8327C35.841 14.6669 36.666 15.4919 36.666 16.5002V25.6669Z" fill="#BD903F"/>
</svg>
