<svg width="45" height="44" viewBox="0 0 45 44" fill="none" xmlns="http://www.w3.org/2000/svg">
<path d="M39.9969 21.9999C39.9969 17.3321 38.1426 12.8555 34.842 9.55482C31.5413 6.25418 27.0647 4.3999 22.3969 4.3999C17.7291 4.3999 13.2524 6.25418 9.9518 9.55482C6.65116 12.8555 4.79688 17.3321 4.79688 21.9999C4.79688 26.6677 6.65116 31.1443 9.9518 34.445C13.2524 37.7456 17.7291 39.5999 22.3969 39.5999C27.0647 39.5999 31.5413 37.7456 34.842 34.445C38.1426 31.1443 39.9969 26.6677 39.9969 21.9999ZM25.6969 18.6999C25.6969 18.1164 25.9287 17.5568 26.3412 17.1443C26.7538 16.7317 27.3134 16.4999 27.8969 16.4999C28.4804 16.4999 29.0399 16.7317 29.4525 17.1443C29.8651 17.5568 30.0969 18.1164 30.0969 18.6999C30.0969 19.2834 29.8651 19.843 29.4525 20.2555C29.0399 20.6681 28.4804 20.8999 27.8969 20.8999C27.3134 20.8999 26.7538 20.6681 26.3412 20.2555C25.9287 19.843 25.6969 19.2834 25.6969 18.6999ZM14.6969 18.6999C14.6969 18.1164 14.9287 17.5568 15.3412 17.1443C15.7538 16.7317 16.3134 16.4999 16.8969 16.4999C17.4804 16.4999 18.0399 16.7317 18.4525 17.1443C18.8651 17.5568 19.0969 18.1164 19.0969 18.6999C19.0969 19.2834 18.8651 19.843 18.4525 20.2555C18.0399 20.6681 17.4804 20.8999 16.8969 20.8999C16.3134 20.8999 15.7538 20.6681 15.3412 20.2555C14.9287 19.843 14.6969 19.2834 14.6969 18.6999ZM15.5527 27.5329C16.3777 28.5533 17.4206 29.3763 18.6048 29.9415C19.789 30.5068 21.0847 30.8001 22.3969 30.7999C23.7091 30.8001 25.0047 30.5068 26.189 29.9415C27.3732 29.3763 28.416 28.5533 29.2411 27.5329C29.3319 27.4205 29.444 27.3271 29.571 27.2581C29.698 27.189 29.8373 27.1456 29.981 27.1304C30.1247 27.1152 30.27 27.1284 30.4086 27.1694C30.5472 27.2103 30.6764 27.2781 30.7888 27.369C30.9012 27.4599 30.9945 27.572 31.0636 27.6989C31.1327 27.8259 31.176 27.9652 31.1913 28.1089C31.2065 28.2526 31.1932 28.3979 31.1523 28.5365C31.1114 28.6751 31.0435 28.8043 30.9527 28.9167C29.9212 30.1922 28.6176 31.2208 27.1372 31.9273C25.6568 32.6338 24.0372 33.0003 22.3969 32.9999C20.7565 33.0003 19.1369 32.6338 17.6565 31.9273C16.1761 31.2208 14.8725 30.1922 13.8411 28.9167C13.7501 28.8043 13.6821 28.6751 13.641 28.5365C13.5999 28.3978 13.5866 28.2524 13.6017 28.1086C13.6168 27.9648 13.6601 27.8253 13.7291 27.6982C13.7981 27.5712 13.8915 27.4589 14.0039 27.3679C14.1163 27.2769 14.2455 27.2089 14.3841 27.1678C14.5228 27.1268 14.6682 27.1134 14.812 27.1285C14.9558 27.1437 15.0952 27.187 15.2223 27.256C15.3494 27.325 15.4617 27.4183 15.5527 27.5307" fill="#BD903F"/>
</svg>
