<svg width="40" height="40" viewBox="0 0 40 40" fill="none" xmlns="http://www.w3.org/2000/svg">
<path d="M20 25C17.1497 25 15 26.1639 15 27.7081V36.0419C15 37.5861 17.1497 38.75 20 38.75C22.8503 38.75 25 37.5861 25 36.0419V27.7081C25 26.1639 22.8503 25 20 25ZM23.75 36.0419C23.75 36.6363 22.2891 37.5 20 37.5C17.7109 37.5 16.25 36.6363 16.25 36.0419V35.0889C17.3998 35.71 18.6938 36.0149 20 35.9723C21.3062 36.0149 22.6002 35.71 23.75 35.0889V36.0419ZM23.75 33.2642C23.75 33.8587 22.2891 34.7223 20 34.7223C17.7109 34.7223 16.25 33.8587 16.25 33.2642V32.3108C17.3997 32.9322 18.6938 33.2372 20 33.1946C21.3062 33.2372 22.6003 32.9322 23.75 32.3108V33.2642ZM23.75 30.4858C23.75 31.0803 22.2891 31.9446 20 31.9446C17.7109 31.9446 16.25 31.0803 16.25 30.4858V29.5331C17.3997 30.1545 18.6938 30.4594 20 30.4169C21.3062 30.4594 22.6003 30.1545 23.75 29.5331V30.4858ZM20 29.1669C17.7109 29.1669 16.25 28.3026 16.25 27.7081C16.25 27.1136 17.7109 26.25 20 26.25C22.2891 26.25 23.75 27.1137 23.75 27.7081C23.75 28.3026 22.2891 29.1669 20 29.1669Z" fill="black"/>
<path d="M8.75 37.5696C11.6003 37.5696 13.75 36.405 13.75 34.8608V23.9581C13.75 22.4139 11.6003 21.25 8.75 21.25C5.89966 21.25 3.75 22.4139 3.75 23.9581V34.8608C3.75 36.405 5.89966 37.5696 8.75 37.5696ZM8.75 22.5C11.0391 22.5 12.5 23.3637 12.5 23.9581C12.5 24.5526 11.0391 25.4169 8.75 25.4169C6.46087 25.4169 5 24.5526 5 23.9581C5 23.3636 6.46087 22.5 8.75 22.5ZM5 25.7831C6.14973 26.4045 7.44381 26.7094 8.75 26.6669C10.0562 26.7094 11.3503 26.4045 12.5 25.7831V26.7358C12.5 27.3303 11.0391 28.1946 8.75 28.1946C6.46087 28.1946 5 27.3303 5 26.7358V25.7831ZM5 28.5608C6.14973 29.1822 7.44381 29.4872 8.75 29.4446C10.0562 29.4872 11.3503 29.1822 12.5 28.5608V29.4446C12.5 30.0391 11.0391 30.9027 8.75 30.9027C6.46087 30.9027 5 30.0391 5 29.4446V28.5608ZM5 31.2693C6.14979 31.8905 7.44385 32.1953 8.75 32.1527C10.0562 32.1953 11.3502 31.8905 12.5 31.2693V32.0831C12.5 32.6776 11.0391 33.5419 8.75 33.5419C6.46087 33.5419 5 32.6776 5 32.0831V31.2693ZM5 33.9081C6.14973 34.5295 7.44381 34.8344 8.75 34.7919C10.0562 34.8344 11.3503 34.5295 12.5 33.9081V34.8608C12.5 35.4553 11.0391 36.3196 8.75 36.3196C6.46087 36.3196 5 35.4553 5 34.8608V33.9081Z" fill="black"/>
<path d="M31.25 21.25C28.3997 21.25 26.25 22.4139 26.25 23.9581V34.8608C26.25 36.405 28.3997 37.5696 31.25 37.5696C34.1003 37.5696 36.25 36.405 36.25 34.8608V23.9581C36.25 22.4139 34.1003 21.25 31.25 21.25ZM35 34.8608C35 35.4553 33.5391 36.3196 31.25 36.3196C28.9609 36.3196 27.5 35.4553 27.5 34.8608V33.9081C28.6497 34.5295 29.9438 34.8344 31.25 34.7919C32.5562 34.8344 33.8503 34.5295 35 33.9081V34.8608ZM35 32.0831C35 32.6776 33.5391 33.5419 31.25 33.5419C28.9609 33.5419 27.5 32.6776 27.5 32.0831V31.2693C28.6498 31.8904 29.9438 32.1953 31.25 32.1527C32.5562 32.1953 33.8502 31.8904 35 31.2693V32.0831ZM35 29.4446C35 30.0391 33.5391 30.9027 31.25 30.9027C28.9609 30.9027 27.5 30.0391 27.5 29.4446V28.5608C28.6497 29.1822 29.9438 29.4871 31.25 29.4446C32.5562 29.4871 33.8503 29.1822 35 28.5608V29.4446ZM35 26.7358C35 27.3303 33.5391 28.1946 31.25 28.1946C28.9609 28.1946 27.5 27.3303 27.5 26.7358V25.7831C28.6497 26.4045 29.9438 26.7094 31.25 26.6669C32.5562 26.7094 33.8503 26.4045 35 25.7831V26.7358ZM31.25 25.4169C28.9609 25.4169 27.5 24.5526 27.5 23.9581C27.5 23.3636 28.9609 22.5 31.25 22.5C33.5391 22.5 35 23.3637 35 23.9581C35 24.5526 33.5391 25.4169 31.25 25.4169Z" fill="black"/>
<path d="M25.93 10.2389L25.2525 9.8605C25.2863 9.53789 25.2863 9.21264 25.2525 8.89003L25.9294 8.51223C26.0508 8.44453 26.1462 8.33825 26.2004 8.21023C26.2546 8.08222 26.2646 7.93977 26.2287 7.80544C25.9332 6.70121 25.3378 5.70033 24.5085 4.9136C24.4118 4.82177 24.2884 4.76324 24.1561 4.74654C24.0239 4.72985 23.8897 4.75588 23.7733 4.82082L23.1623 5.1614C23.1399 5.17531 23.1143 5.18339 23.0879 5.18488C23.0615 5.18637 23.0352 5.18124 23.0113 5.16994C22.7629 5.00237 22.5006 4.85637 22.2273 4.73354C22.2109 4.72366 22.1975 4.70955 22.1885 4.69268C22.1795 4.67581 22.1752 4.65682 22.176 4.63772V3.95717C22.1761 3.81959 22.1307 3.68585 22.0469 3.5767C21.9631 3.46755 21.8457 3.38911 21.7128 3.35353C21.1286 3.1924 20.5243 3.11574 19.9183 3.12589C19.3675 3.13445 18.8198 3.21175 18.2881 3.35599C18.155 3.3914 18.0374 3.46978 17.9535 3.57895C17.8696 3.68812 17.8242 3.82195 17.8242 3.95963V4.63775C17.8251 4.65678 17.8208 4.67568 17.8118 4.69245C17.8027 4.70922 17.7893 4.72322 17.773 4.73297C17.4997 4.85641 17.2372 5.00259 16.9884 5.16998C16.9645 5.18113 16.9383 5.18619 16.9121 5.1847C16.8858 5.1832 16.8603 5.17521 16.8379 5.16143L16.2303 4.82206C16.1138 4.75715 15.9796 4.73114 15.8472 4.74783C15.7149 4.76451 15.5913 4.82302 15.4945 4.91483C14.6646 5.70112 14.0682 6.7015 13.7712 7.80546C13.7353 7.93978 13.7452 8.08226 13.7994 8.21029C13.8537 8.33833 13.9491 8.4446 14.0706 8.51225L14.7475 8.89005C14.7141 9.21268 14.7141 9.53789 14.7475 9.86052L14.0709 10.2383C13.9494 10.306 13.8541 10.4123 13.7998 10.5403C13.7456 10.6683 13.7356 10.8108 13.7715 10.9451C14.0671 12.0493 14.6625 13.0502 15.4918 13.837C15.5883 13.9291 15.7117 13.9878 15.8441 14.0045C15.9764 14.0212 16.1106 13.995 16.2269 13.9298L16.8379 13.5892C16.8604 13.5753 16.886 13.5672 16.9124 13.5657C16.9387 13.5642 16.9651 13.5693 16.989 13.5806C17.2371 13.7479 17.499 13.8939 17.7717 14.017C17.7884 14.0267 17.802 14.0408 17.8113 14.0577C17.8205 14.0746 17.825 14.0936 17.8242 14.1129V14.7934C17.8242 14.931 17.8696 15.0647 17.9534 15.1739C18.0372 15.283 18.1546 15.3615 18.2875 15.397C18.8457 15.5475 19.4211 15.6242 19.9992 15.6253C20.027 15.6253 20.0544 15.6253 20.0819 15.6246C20.6328 15.6161 21.1804 15.5388 21.7122 15.3945C21.8452 15.3591 21.9628 15.2807 22.0467 15.1716C22.1306 15.0624 22.1761 14.9286 22.176 14.7909V14.1128C22.1752 14.0938 22.1794 14.075 22.1883 14.0582C22.1972 14.0415 22.2105 14.0274 22.2267 14.0176C22.5003 13.8943 22.7629 13.7481 23.0119 13.5806C23.0357 13.5694 23.0619 13.5644 23.0882 13.5658C23.1144 13.5673 23.1399 13.5753 23.1623 13.5891L23.7699 13.9285C23.8864 13.9935 24.0207 14.0196 24.1531 14.0029C24.2854 13.9862 24.409 13.9276 24.5057 13.8357C25.3355 13.0495 25.9318 12.0494 26.229 10.9457C26.2648 10.8114 26.2549 10.669 26.2007 10.541C26.1466 10.413 26.0513 10.3067 25.93 10.2389ZM23.9576 8.67152C24.0512 9.13601 24.0512 9.61452 23.9576 10.079C23.9331 10.208 23.9497 10.3414 24.0052 10.4603C24.0607 10.5793 24.1522 10.6778 24.2668 10.7419L24.8741 11.0812C24.6632 11.6393 24.3531 12.1546 23.9588 12.6022L23.7721 12.4979C23.5481 12.3708 23.2934 12.308 23.036 12.3162C22.7787 12.3243 22.5285 12.4032 22.313 12.5442C22.1226 12.6723 21.9215 12.784 21.7121 12.8781C21.4766 12.9869 21.2772 13.1612 21.1378 13.3801C20.9984 13.599 20.9249 13.8533 20.926 14.1128V14.2911C20.6423 14.3426 20.3547 14.3706 20.0664 14.3746C19.7337 14.3814 19.4013 14.354 19.0742 14.2929V14.1128C19.0752 13.853 19.0014 13.5984 18.8617 13.3794C18.722 13.1603 18.5223 12.9861 18.2863 12.8775C18.078 12.7834 17.8779 12.6721 17.6882 12.5448C17.4725 12.404 17.2223 12.3252 16.9649 12.3169C16.7075 12.3086 16.4528 12.3712 16.2285 12.4978L16.0387 12.6034C15.645 12.1551 15.3357 11.6392 15.1259 11.0806L15.7329 10.7419C15.8475 10.678 15.939 10.5796 15.9946 10.4607C16.0501 10.3419 16.0668 10.2085 16.0423 10.0796C15.9492 9.61469 15.9492 9.13588 16.0423 8.67094C16.0668 8.54204 16.0501 8.40871 15.9946 8.28984C15.939 8.17098 15.8475 8.07262 15.7329 8.00871L15.1259 7.66996C15.3369 7.11178 15.6469 6.59631 16.0411 6.14835L16.2279 6.25273C16.452 6.37946 16.7067 6.44215 16.9641 6.43397C17.2214 6.42579 17.4716 6.34705 17.6873 6.20634C17.8773 6.07877 18.0777 5.9673 18.2863 5.87308C18.5225 5.76464 18.7224 5.59046 18.8621 5.37137C19.0019 5.15229 19.0755 4.89759 19.0743 4.63773V4.4595C19.358 4.40792 19.6455 4.37995 19.9339 4.37589C20.2665 4.37102 20.5987 4.39841 20.926 4.45768V4.63773C20.9248 4.89758 20.9984 5.15228 21.1382 5.37137C21.2779 5.59045 21.4778 5.76463 21.714 5.87308C21.9225 5.96699 22.1228 6.07848 22.3124 6.20633C22.5282 6.34676 22.7783 6.42534 23.0356 6.43352C23.2929 6.44169 23.5476 6.37916 23.7718 6.25272L23.9616 6.14713C24.3553 6.59547 24.6646 7.1114 24.8744 7.66995L24.2671 8.0087C24.1524 8.07269 24.0608 8.17115 24.0053 8.29012C23.9497 8.40909 23.9331 8.54253 23.9576 8.67152Z" fill="url(#paint0_linear_1641_12850)"/>
<path d="M20 6.25C19.3819 6.25 18.7777 6.43328 18.2638 6.77666C17.7499 7.12004 17.3494 7.6081 17.1129 8.17911C16.8764 8.75013 16.8145 9.37847 16.935 9.98466C17.0556 10.5908 17.3533 11.1477 17.7903 11.5847C18.2273 12.0217 18.7842 12.3194 19.3903 12.44C19.9965 12.5605 20.6249 12.4986 21.1959 12.2621C21.7669 12.0256 22.255 11.6251 22.5983 11.1112C22.9417 10.5973 23.125 9.99307 23.125 9.375C23.124 8.5465 22.7945 7.75221 22.2086 7.16637C21.6228 6.58052 20.8285 6.25097 20 6.25ZM20 11.25C19.6292 11.25 19.2667 11.14 18.9583 10.934C18.65 10.728 18.4096 10.4351 18.2677 10.0925C18.1258 9.74992 18.0887 9.37292 18.161 9.00921C18.2334 8.64549 18.412 8.3114 18.6742 8.04917C18.9364 7.78695 19.2705 7.60837 19.6342 7.53603C19.9979 7.46368 20.3749 7.50081 20.7175 7.64273C21.0601 7.78464 21.353 8.02496 21.559 8.33331C21.765 8.64165 21.875 9.00416 21.875 9.375C21.8745 9.87211 21.6767 10.3487 21.3252 10.7002C20.9737 11.0517 20.4971 11.2495 20 11.25Z" fill="url(#paint1_linear_1641_12850)"/>
<path d="M37.5 6.56246C37.648 6.56238 37.7911 6.50985 37.904 6.41418C38.0168 6.31852 38.0921 6.18594 38.1165 6.04L38.7415 2.29C38.7578 2.19188 38.7504 2.09129 38.72 1.99658C38.6897 1.90187 38.6371 1.81578 38.5668 1.74546C38.4964 1.67515 38.4103 1.62264 38.3156 1.59229C38.2209 1.56195 38.1203 1.55465 38.0222 1.57101L34.2722 2.19601C34.1589 2.21489 34.053 2.26462 33.9662 2.33973C33.8793 2.41483 33.8149 2.51241 33.7798 2.62176C33.7448 2.73111 33.7406 2.84799 33.7676 2.95958C33.7947 3.07117 33.8519 3.17316 33.9331 3.25434L35.0537 4.37496L30.708 8.72066L28.194 8.44113L28.056 9.6838L30.8685 9.9963C30.8914 9.99874 30.9145 9.99996 30.9375 9.99996C31.1032 9.99991 31.2622 9.93404 31.3794 9.81684L35.9375 5.25871L37.0581 6.37934C37.1161 6.43739 37.185 6.48344 37.2608 6.51486C37.3367 6.54628 37.4179 6.56246 37.5 6.56246ZM35.6756 3.22934L37.3648 2.94797L37.0831 4.63684L35.6756 3.22934Z" fill="black"/>
<path d="M12.3022 9.96783L12.6977 8.78253L7.07274 6.90753C6.96267 6.87047 6.84443 6.86495 6.7314 6.8916C6.61836 6.91825 6.51503 6.97599 6.43311 7.05831L1.43311 12.0583L2.31686 12.9421L7.04373 8.21549L12.3022 9.96783Z" fill="black"/>
<defs>
<linearGradient id="paint0_linear_1641_12850" x1="13.75" y1="4.16669" x2="25.3033" y2="15.6251" gradientUnits="userSpaceOnUse">
<stop stop-color="#4F16FF"/>
<stop offset="1" stop-color="#2BADFF"/>
</linearGradient>
<linearGradient id="paint1_linear_1641_12850" x1="16.875" y1="6.77083" x2="22.6515" y2="12.5" gradientUnits="userSpaceOnUse">
<stop stop-color="#4F16FF"/>
<stop offset="1" stop-color="#2BADFF"/>
</linearGradient>
</defs>
</svg>
