<svg width="40" height="40" viewBox="0 0 40 40" fill="none" xmlns="http://www.w3.org/2000/svg">
<path d="M17.105 8.32691H16.6608C16.553 8.00957 16.4237 7.69754 16.2755 7.39707L16.5897 7.08293C17.2118 6.46074 17.2118 5.44848 16.5897 4.82629L15.3344 3.5709C15.033 3.26949 14.6323 3.10355 14.206 3.10355C13.7798 3.10355 13.3791 3.26957 13.0777 3.5709L12.7636 3.88504C12.463 3.73684 12.151 3.60754 11.8338 3.4998V3.05559C11.8338 2.17574 11.118 1.45996 10.2381 1.45996H8.46273C7.58289 1.45996 6.86703 2.17574 6.86703 3.05559V3.4998C6.54977 3.60754 6.23781 3.73676 5.93727 3.88504L5.62312 3.5709C5.00094 2.94879 3.98867 2.94887 3.36648 3.5709L2.11094 4.82629C1.48883 5.44848 1.48883 6.46074 2.11094 7.08293L2.42508 7.39707C2.2768 7.69769 2.1475 8.00973 2.03984 8.32691H1.59555C0.715781 8.32691 0 9.0427 0 9.92254V11.698C0 12.5779 0.715781 13.2936 1.59562 13.2936H2.03984C2.1475 13.6108 2.2768 13.9229 2.42508 14.2235L2.11094 14.5376C1.80953 14.839 1.64359 15.2397 1.64359 15.666C1.64359 16.0922 1.80961 16.4929 2.11094 16.7943L3.36633 18.0497C3.98859 18.6718 5.00086 18.6718 5.62297 18.0497L5.93711 17.7356C6.23758 17.8838 6.54961 18.0131 6.86688 18.1208V18.565C6.86688 19.4449 7.58273 20.1607 8.46258 20.1607H10.238C11.1178 20.1607 11.8336 19.4449 11.8336 18.565V18.1208C12.1509 18.0131 12.463 17.8838 12.7634 17.7356L13.0777 18.0498C13.6999 18.672 14.7122 18.6718 15.3342 18.0498L16.5897 16.7943C17.2118 16.1721 17.2117 15.1598 16.5897 14.5378L16.2755 14.2236C16.4237 13.923 16.553 13.6111 16.6608 13.2937H17.105C17.9848 13.2937 18.7007 12.5779 18.7007 11.6981V9.92262C18.7007 9.0427 17.9848 8.32691 17.105 8.32691ZM16.982 11.5749H16.5716C15.8795 11.5749 15.2701 12.017 15.0553 12.6751C14.9604 12.966 14.842 13.2518 14.7035 13.5246C14.3897 14.1425 14.5078 14.8864 14.9973 15.3757L15.2875 15.666L14.2062 16.7473L13.916 16.4571C13.4265 15.9676 12.6826 15.8495 12.0648 16.1633C11.792 16.3018 11.5062 16.4202 11.2153 16.5151C10.5573 16.73 10.1151 17.3393 10.1151 18.0314V18.4418H8.58586V18.0314C8.58586 17.3393 8.14375 16.7299 7.48563 16.5151C7.19477 16.4202 6.90898 16.3018 6.63625 16.1633C6.01844 15.8495 5.27453 15.9676 4.785 16.4571L4.49484 16.7473L3.41328 15.666L3.70352 15.3758C4.19297 14.8864 4.31102 14.1424 3.99727 13.5246C3.85867 13.2517 3.74031 12.9659 3.64547 12.6752C3.4307 12.0171 2.82133 11.575 2.12906 11.575H1.71875V10.0457H2.12906C2.82125 10.0457 3.43062 9.60363 3.64547 8.94551C3.74031 8.6548 3.85867 8.3691 3.99727 8.09621C4.31109 7.4784 4.19297 6.73441 3.70352 6.24496L3.41328 5.95473L4.49461 4.8734L4.78477 5.16363C5.2743 5.65309 6.01813 5.77105 6.63602 5.45738C6.90891 5.31879 7.19469 5.20043 7.48531 5.10559C8.14344 4.89082 8.58555 4.28145 8.58555 3.58918V3.17887H10.1148V3.58918C10.1148 4.28145 10.557 4.89082 11.215 5.10551C11.5057 5.20043 11.7915 5.31879 12.0645 5.45738C12.6823 5.77121 13.4263 5.65309 13.9157 5.16363L14.2059 4.8734L15.2872 5.95473L14.997 6.24488C14.5075 6.73441 14.3895 7.47832 14.7032 8.09613C14.8416 8.36887 14.9601 8.65465 15.055 8.94559C15.2698 9.60363 15.8791 10.0458 16.5713 10.0458H16.9816V11.5749H16.982Z" fill="black"/>
<path d="M9.35019 6.88281C7.18402 6.88281 5.42175 8.64508 5.42175 10.8112C5.42175 12.9774 7.18402 14.7397 9.35019 14.7397C11.5164 14.7397 13.2786 12.9774 13.2786 10.8112C13.2786 8.64508 11.5164 6.88281 9.35019 6.88281ZM9.35019 13.0209C8.13175 13.0209 7.1405 12.0297 7.1405 10.8112C7.1405 9.59281 8.13175 8.60156 9.35019 8.60156C10.5686 8.60156 11.5599 9.59281 11.5599 10.8112C11.5599 12.0297 10.5686 13.0209 9.35019 13.0209Z" fill="black"/>
<path d="M29.0133 14.2161C29.4946 14.531 29.8737 14.6834 30.2926 14.7529V14.8683C30.2926 15.3429 30.6774 15.7277 31.152 15.7277C31.6266 15.7277 32.0114 15.3429 32.0114 14.8683V14.6612C32.9697 14.3284 33.5819 13.4693 33.7244 12.6212C33.9232 11.4389 33.2831 10.371 32.1315 9.96395C31.559 9.7616 30.9277 9.51855 30.5865 9.25098C30.5494 9.22191 30.5087 9.1034 30.5393 8.94137C30.5541 8.86254 30.6226 8.59941 30.8793 8.52207C31.3423 8.38254 31.6708 8.52965 31.8337 8.63793L31.9224 8.70652C32.298 8.99668 32.8376 8.92754 33.1279 8.55199C33.4181 8.17645 33.3489 7.63676 32.9733 7.34652C32.9733 7.34652 32.8409 7.24465 32.8289 7.23629C32.6733 7.12832 32.3918 6.96176 32.0115 6.8534V6.75293C32.0115 6.27832 31.6267 5.89355 31.1521 5.89355C30.6775 5.89355 30.2927 6.27832 30.2927 6.75293V6.90731C29.5515 7.16738 29.0025 7.81574 28.8503 8.62301C28.7034 9.40254 28.9623 10.1614 29.5258 10.6034C30.0612 11.0233 30.8194 11.3231 31.5587 11.5845C32.0246 11.7492 32.0719 12.0842 32.0294 12.3363C31.9691 12.6953 31.667 13.0833 31.1463 13.0867C30.5505 13.0906 30.3951 13.0663 29.9542 12.7779C29.5571 12.518 29.0244 12.6294 28.7646 13.0265C28.5048 13.4237 28.6161 13.9563 29.0133 14.2161Z" fill="url(#paint0_linear_1636_12810)"/>
<path d="M30.9613 19.8494C35.9451 19.8494 39.9998 15.7948 39.9998 10.811C39.9998 5.82715 35.9452 1.77246 30.9613 1.77246C25.9775 1.77246 21.9229 5.82707 21.9229 10.8109C21.9229 15.7947 25.9775 19.8494 30.9613 19.8494ZM30.9613 3.49121C34.9975 3.49121 38.2811 6.7748 38.2811 10.8109C38.2811 14.847 34.9975 18.1306 30.9613 18.1306C26.9252 18.1306 23.6416 14.847 23.6416 10.8109C23.6416 6.7748 26.9252 3.49121 30.9613 3.49121Z" fill="url(#paint1_linear_1636_12810)"/>
<path d="M38.8809 22.918H1.11906C0.502031 22.918 0 23.4199 0 24.037C0 26.7255 2.18727 28.9128 4.87578 28.9128H15.8376L12.8518 34.0844C12.3148 35.0146 12.3148 36.1253 12.8518 37.0555C13.3888 37.9856 14.3507 38.541 15.4248 38.541H24.1345C25.2087 38.541 26.1705 37.9857 26.7076 37.0555C27.2446 36.1252 27.2446 35.0146 26.7076 34.0844L23.7218 28.9128H35.1242C37.8127 28.9128 40 26.7255 40 24.037C40 23.4199 39.498 22.918 38.8809 22.918ZM25.2191 34.9437C25.4454 35.3359 25.4454 35.804 25.2191 36.1961C24.9927 36.5882 24.5873 36.8223 24.1345 36.8223H15.4248C14.9721 36.8223 14.5667 36.5882 14.3403 36.1961C14.114 35.804 14.114 35.3359 14.3403 34.9437L17.8223 28.9128H21.7371L25.2191 34.9437ZM35.1242 27.1941H4.87578C3.33992 27.1941 2.0568 26.0918 1.77586 24.6367H38.2241C37.9432 26.0918 36.6601 27.1941 35.1242 27.1941Z" fill="black"/>
<defs>
<linearGradient id="paint0_linear_1636_12810" x1="28.6243" y1="6.71307" x2="36.0486" y2="10.5588" gradientUnits="userSpaceOnUse">
<stop stop-color="#4F16FF"/>
<stop offset="1" stop-color="#2BADFF"/>
</linearGradient>
<linearGradient id="paint1_linear_1636_12810" x1="21.9229" y1="3.27887" x2="38.6303" y2="19.8494" gradientUnits="userSpaceOnUse">
<stop stop-color="#4F16FF"/>
<stop offset="1" stop-color="#2BADFF"/>
</linearGradient>
</defs>
</svg>
