<svg width="42" height="41" viewBox="0 0 42 41" fill="none" xmlns="http://www.w3.org/2000/svg">
<path fill-rule="evenodd" clip-rule="evenodd" d="M20.9873 3.10547C23.5533 3.10547 25.6364 5.18856 25.6364 7.75454C25.6364 10.3205 23.5533 12.4036 20.9873 12.4036C18.4212 12.4036 16.3381 10.3205 16.3381 7.75454C16.3381 5.18856 18.4212 3.10547 20.9873 3.10547ZM20.9873 4.5305C19.2079 4.5305 17.7632 5.97521 17.7632 7.75454C17.7632 9.53386 19.2079 10.9786 20.9873 10.9786C22.7666 10.9786 24.2113 9.53386 24.2113 7.75454C24.2113 5.97521 22.7666 4.5305 20.9873 4.5305Z" fill="black"/>
<path fill-rule="evenodd" clip-rule="evenodd" d="M18.2518 14.566L18.4062 14.5492L17.7259 14.7093C16.9218 14.8982 16.3177 15.5632 16.2059 16.3815L15.8904 18.6941C15.8626 18.8977 15.9245 19.104 16.0594 19.2589C16.1948 19.4137 16.3906 19.5029 16.5964 19.5029H25.4038C25.6096 19.5029 25.8054 19.4137 25.9408 19.2589C26.0757 19.104 26.1376 18.8977 26.1098 18.6941L25.8075 16.4754C25.6878 15.6 25.0417 14.8882 24.1814 14.6846L23.5295 14.5303C23.2109 14.4589 22.9726 14.1749 22.9726 13.8348C22.9726 13.5225 23.1747 13.2564 23.455 13.8768C23.3563 13.4606 23.3594 13.026 23.8575 13.1436L24.5094 13.2979C25.9434 13.6369 27.0199 14.8237 27.2189 16.2833L27.5217 18.5014C27.6052 19.1129 27.4199 19.7307 27.0142 20.1958C26.6079 20.6608 26.0211 20.9274 25.4038 20.9274H16.5964C15.9791 20.9274 15.3923 20.6608 14.986 20.1958C14.5803 19.7307 14.395 19.1129 14.4785 18.5014L14.7939 16.1889C14.9855 14.7859 16.0211 13.6464 17.3994 13.322L18.0802 13.1619L18.2518 14.566Z" fill="black"/>
<path fill-rule="evenodd" clip-rule="evenodd" d="M23.7129 13.5515C24.034 13.3235 24.4804 13.3992 24.7083 13.721C24.9363 14.0421 24.8606 14.4877 24.5387 14.7156C23.6498 15.3466 22.5629 15.7181 21.3909 15.7181C20.2322 15.7181 19.1571 15.3553 18.2738 14.7369C17.9512 14.5114 17.8723 14.0657 18.0979 13.7431C18.3234 13.4205 18.7691 13.3417 19.0917 13.5672C19.7432 14.0231 20.5359 14.2905 21.3909 14.2905C22.2553 14.2905 23.0567 14.0168 23.7129 13.5515Z" fill="black"/>
<path fill-rule="evenodd" clip-rule="evenodd" d="M34.5371 0.963867C37.1031 0.963867 39.1862 3.04696 39.1862 5.61293C39.1862 8.17891 37.1031 10.262 34.5371 10.262C31.9711 10.262 29.8879 8.17891 29.8879 5.61293C29.8879 3.04696 31.9711 0.963867 34.5371 0.963867ZM34.5371 2.3889C32.7577 2.3889 31.313 3.83361 31.313 5.61293C31.313 7.39226 32.7577 8.83697 34.5371 8.83697C36.3164 8.83697 37.7611 7.39226 37.7611 5.61293C37.7611 3.83361 36.3164 2.3889 34.5371 2.3889Z" fill="black"/>
<path fill-rule="evenodd" clip-rule="evenodd" d="M31.8016 12.4244L31.956 12.4076L31.2757 12.5676C30.4716 12.7566 29.8675 13.4216 29.7557 14.2399L29.4402 16.5525C29.4124 16.7561 29.4743 16.9624 29.6092 17.1173C29.7446 17.2721 29.9404 17.3613 30.1462 17.3613H38.9537C39.1594 17.3613 39.3552 17.2721 39.4906 17.1173C39.6255 16.9624 39.6874 16.7561 39.6596 16.5525L39.3573 14.3338C39.2376 13.4584 38.5915 12.7466 37.7312 12.543L37.0793 12.3887C36.7607 12.3173 36.5224 12.0333 36.5224 11.6932C36.5224 11.3809 36.7245 11.1148 37.0048 11.7352C36.9061 11.319 36.9092 10.8844 37.4074 11.0019L38.0593 11.1563C39.4932 11.4953 40.5697 12.6821 40.7687 14.1417L41.0715 16.3598C41.155 16.9713 40.9697 17.5891 40.564 18.0542C40.1577 18.5192 39.5709 18.7858 38.9537 18.7858H30.1462C29.5289 18.7858 28.9421 18.5192 28.5358 18.0542C28.1301 17.5891 27.9448 16.9713 28.0283 16.3598L28.3437 14.0473C28.5353 12.6443 29.5709 11.5048 30.9492 11.1804L31.63 11.0203L31.8016 12.4244Z" fill="black"/>
<path fill-rule="evenodd" clip-rule="evenodd" d="M36.7892 11.1413C37.1102 10.9134 37.5567 10.9891 37.7846 11.3109C38.0126 11.6319 37.9369 12.0775 37.615 12.3055C36.7261 12.9365 35.6392 13.308 34.4672 13.308C33.3085 13.308 32.2334 12.9452 31.35 12.3268C31.0274 12.1012 30.9486 11.6556 31.1742 11.333C31.3997 11.0104 31.8454 10.9315 32.168 11.1571C32.8195 11.613 33.6122 11.8804 34.4672 11.8804C35.3316 11.8804 36.133 11.6067 36.7892 11.1413Z" fill="black"/>
<path fill-rule="evenodd" clip-rule="evenodd" d="M7.4372 0.963867C10.0032 0.963867 12.0863 3.04696 12.0863 5.61293C12.0863 8.17891 10.0032 10.262 7.4372 10.262C4.8712 10.262 2.78809 8.17891 2.78809 5.61293C2.78809 3.04696 4.8712 0.963867 7.4372 0.963867ZM7.4372 2.3889C5.65786 2.3889 4.21313 3.83361 4.21313 5.61293C4.21313 7.39226 5.65786 8.83697 7.4372 8.83697C9.21654 8.83697 10.6613 7.39226 10.6613 5.61293C10.6613 3.83361 9.21654 2.3889 7.4372 2.3889Z" fill="black"/>
<path fill-rule="evenodd" clip-rule="evenodd" d="M4.70191 12.4244L4.85623 12.4076L4.17598 12.5676C3.37186 12.7566 2.76773 13.4216 2.65593 14.2399L2.34049 16.5525C2.31267 16.7561 2.3746 16.9624 2.50949 17.1173C2.64491 17.2721 2.84068 17.3613 3.04643 17.3613H11.8539C12.0597 17.3613 12.2554 17.2721 12.3909 17.1173C12.5258 16.9624 12.5877 16.7561 12.5599 16.5525L12.2575 14.3338C12.1379 13.4584 11.4917 12.7466 10.6315 12.543L9.97957 12.3887C9.66097 12.3173 9.42267 12.0333 9.42267 11.6932C9.42267 11.3809 9.62475 11.1148 9.90504 11.7352C9.80636 11.319 9.80951 10.8844 10.3076 11.0019L10.9595 11.1563C12.3935 11.4953 13.47 12.6821 13.6689 14.1417L13.9718 16.3598C14.0553 16.9713 13.87 17.5891 13.4642 18.0542C13.058 18.5192 12.4712 18.7858 11.8539 18.7858H3.04643C2.42917 18.7858 1.84236 18.5192 1.43611 18.0542C1.03037 17.5891 0.845103 16.9713 0.928559 16.3598L1.244 14.0473C1.43558 12.6443 2.47118 11.5048 3.84951 11.1804L4.53028 11.0203L4.70191 12.4244Z" fill="black"/>
<path fill-rule="evenodd" clip-rule="evenodd" d="M9.16399 11.1413C9.48501 10.9134 9.93143 10.9891 10.1594 11.3109C10.3873 11.6319 10.3116 12.0775 9.9898 12.3055C9.10088 12.9365 8.014 13.308 6.84192 13.308C5.68325 13.308 4.6082 12.9452 3.7248 12.3268C3.40221 12.1012 3.32334 11.6556 3.54892 11.333C3.7745 11.0104 4.22012 10.9315 4.54272 11.1571C5.19422 11.613 5.98692 11.8804 6.84192 11.8804C7.70638 11.8804 8.50775 11.6067 9.16399 11.1413Z" fill="black"/>
<path fill-rule="evenodd" clip-rule="evenodd" d="M29.0502 33.2125C28.6565 33.2125 28.337 32.893 28.337 32.4993C28.337 32.1057 28.6565 31.7862 29.0502 31.7862H34.7554V22.6038C34.7554 22.2101 35.0749 21.8906 35.4685 21.8906C35.8622 21.8906 36.1817 22.2101 36.1817 22.6038V32.4993C36.1817 32.893 35.8622 33.2125 35.4685 33.2125H29.0502Z" fill="black"/>
<path fill-rule="evenodd" clip-rule="evenodd" d="M33.1209 25.9597C32.8413 26.2378 32.3906 26.2378 32.1111 25.9597C31.8329 25.6801 31.8329 25.2294 32.1111 24.9498L34.9637 22.0973C35.2432 21.8191 35.6939 21.8191 35.9735 22.0973L38.8261 24.9498C39.1042 25.2294 39.1042 25.6801 38.8261 25.9597C38.5465 26.2378 38.0958 26.2378 37.8163 25.9597L35.4686 23.6106L33.1209 25.9597Z" fill="black"/>
<path fill-rule="evenodd" clip-rule="evenodd" d="M13.3608 31.7862C13.7545 31.7862 14.074 32.1057 14.074 32.4993C14.074 32.893 13.7545 33.2125 13.3608 33.2125H6.94246C6.5488 33.2125 6.22931 32.893 6.22931 32.4993V22.6038C6.22931 22.2101 6.5488 21.8906 6.94246 21.8906C7.33612 21.8906 7.65561 22.2101 7.65561 22.6038V31.7862H13.3608Z" fill="black"/>
<path fill-rule="evenodd" clip-rule="evenodd" d="M10.2998 24.9498C10.578 25.2294 10.578 25.6801 10.2998 25.9597C10.0203 26.2378 9.56955 26.2378 9.28999 25.9597L6.94231 23.6106L4.59462 25.9597C4.31506 26.2378 3.86434 26.2378 3.58478 25.9597C3.30666 25.6801 3.30666 25.2294 3.58478 24.9498L6.43739 22.0973C6.71694 21.8191 7.16767 21.8191 7.44722 22.0973L10.2998 24.9498Z" fill="black"/>
<path fill-rule="evenodd" clip-rule="evenodd" d="M21.1899 23.8506C25.9127 23.8506 29.7463 27.6841 29.7463 32.4069C29.7463 37.1296 25.9127 40.9631 21.1899 40.9631C16.4671 40.9631 12.6335 37.1296 12.6335 32.4069C12.6335 27.6841 16.4671 23.8506 21.1899 23.8506ZM21.1899 25.2768C17.255 25.2768 14.0598 28.472 14.0598 32.4069C14.0598 36.3417 17.255 39.5369 21.1899 39.5369C25.1248 39.5369 28.32 36.3417 28.32 32.4069C28.32 28.472 25.1248 25.2768 21.1899 25.2768Z" fill="url(#paint0_linear_1641_12867)"/>
<path fill-rule="evenodd" clip-rule="evenodd" d="M21.1741 31.6909C21.5672 31.6909 21.8866 32.01 21.8866 32.4033C21.8866 32.7966 21.5672 33.1157 21.1741 33.1157C19.4168 33.1157 18.0355 31.8183 18.0355 30.281C18.0355 28.7437 19.4168 27.4463 21.1741 27.4463C22.9315 27.4463 24.3128 28.7437 24.3128 30.281C24.3128 30.6743 23.9933 30.9934 23.6003 30.9934C23.2072 30.9934 22.8878 30.6743 22.8878 30.281C22.8878 29.4745 22.0961 28.8711 21.1741 28.8711C20.2522 28.8711 19.4605 29.4745 19.4605 30.281C19.4605 31.0875 20.2522 31.6909 21.1741 31.6909Z" fill="url(#paint1_linear_1641_12867)"/>
<path fill-rule="evenodd" clip-rule="evenodd" d="M21.1739 33.1133C20.7809 33.1133 20.4614 32.7942 20.4614 32.4009C20.4614 32.0075 20.7809 31.6885 21.1739 31.6885C22.9312 31.6885 24.3125 32.9859 24.3125 34.5232C24.3125 36.0604 22.9312 37.3579 21.1739 37.3579C19.4166 37.3579 18.0353 36.0604 18.0353 34.5232C18.0353 34.1298 18.3547 33.8108 18.7478 33.8108C19.1408 33.8108 19.4602 34.1298 19.4602 34.5232C19.4602 35.3297 20.252 35.9331 21.1739 35.9331C22.0958 35.9331 22.8876 35.3297 22.8876 34.5232C22.8876 33.7167 22.0958 33.1133 21.1739 33.1133Z" fill="url(#paint2_linear_1641_12867)"/>
<path fill-rule="evenodd" clip-rule="evenodd" d="M21.9354 28.1618C21.9354 28.5551 21.6158 28.8755 21.2225 28.8755C20.8291 28.8755 20.5095 28.5551 20.5095 28.1618V26.9481C20.5095 26.5548 20.8291 26.2344 21.2225 26.2344C21.6158 26.2344 21.9354 26.5548 21.9354 26.9481V28.1618Z" fill="url(#paint3_linear_1641_12867)"/>
<path fill-rule="evenodd" clip-rule="evenodd" d="M20.5098 36.658C20.5098 36.2648 20.8293 35.9443 21.2227 35.9443C21.6161 35.9443 21.9357 36.2648 21.9357 36.658V37.8718C21.9357 38.2651 21.6161 38.5855 21.2227 38.5855C20.8293 38.5855 20.5098 38.2651 20.5098 37.8718V36.658Z" fill="url(#paint4_linear_1641_12867)"/>
<defs>
<linearGradient id="paint0_linear_1641_12867" x1="12.6335" y1="25.2766" x2="28.4497" y2="40.9633" gradientUnits="userSpaceOnUse">
<stop stop-color="#4F16FF"/>
<stop offset="1" stop-color="#2BADFF"/>
</linearGradient>
<linearGradient id="paint1_linear_1641_12867" x1="18.0355" y1="27.9187" x2="23.2527" y2="33.6479" gradientUnits="userSpaceOnUse">
<stop stop-color="#4F16FF"/>
<stop offset="1" stop-color="#2BADFF"/>
</linearGradient>
<linearGradient id="paint2_linear_1641_12867" x1="18.0353" y1="32.1609" x2="23.2525" y2="37.8901" gradientUnits="userSpaceOnUse">
<stop stop-color="#4F16FF"/>
<stop offset="1" stop-color="#2BADFF"/>
</linearGradient>
<linearGradient id="paint3_linear_1641_12867" x1="20.5095" y1="26.4545" x2="22.5412" y2="27.5423" gradientUnits="userSpaceOnUse">
<stop stop-color="#4F16FF"/>
<stop offset="1" stop-color="#2BADFF"/>
</linearGradient>
<linearGradient id="paint4_linear_1641_12867" x1="20.5098" y1="36.1644" x2="22.5415" y2="37.2523" gradientUnits="userSpaceOnUse">
<stop stop-color="#4F16FF"/>
<stop offset="1" stop-color="#2BADFF"/>
</linearGradient>
</defs>
</svg>
