<svg width="40" height="40" viewBox="0 0 40 40" fill="none" xmlns="http://www.w3.org/2000/svg">
<path d="M26.6673 35V31.6667C26.6673 29.8986 25.9649 28.2029 24.7147 26.9526C23.4645 25.7024 21.7688 25 20.0007 25H10.0007C8.23254 25 6.53685 25.7024 5.28661 26.9526C4.03636 28.2029 3.33398 29.8986 3.33398 31.6667V35" stroke="#BD903F" stroke-width="3.33333" stroke-linecap="round" stroke-linejoin="round"/>
<path d="M26.666 5.21338C28.0956 5.584 29.3617 6.41882 30.2655 7.58682C31.1693 8.75481 31.6597 10.1899 31.6597 11.6667C31.6597 13.1436 31.1693 14.5786 30.2655 15.7466C29.3617 16.9146 28.0956 17.7494 26.666 18.12" stroke="#BD903F" stroke-width="3.33333" stroke-linecap="round" stroke-linejoin="round"/>
<path d="M36.666 34.9996V31.6663C36.6649 30.1892 36.1733 28.7543 35.2683 27.5868C34.3633 26.4194 33.0962 25.5856 31.666 25.2163" stroke="#BD903F" stroke-width="3.33333" stroke-linecap="round" stroke-linejoin="round"/>
<path d="M15.0007 18.3333C18.6825 18.3333 21.6673 15.3486 21.6673 11.6667C21.6673 7.98477 18.6825 5 15.0007 5C11.3188 5 8.33398 7.98477 8.33398 11.6667C8.33398 15.3486 11.3188 18.3333 15.0007 18.3333Z" stroke="#BD903F" stroke-width="3.33333" stroke-linecap="round" stroke-linejoin="round"/>
</svg>
