<svg width="44" height="44" viewBox="0 0 44 44" fill="none" xmlns="http://www.w3.org/2000/svg">
<path d="M38.9404 28.7408C39.0809 28.8706 39.2205 29.0013 39.3594 29.1329C39.4363 29.2052 39.5131 29.2775 39.5923 29.3521C40.5091 30.2393 41.8371 31.602 42.0231 32.9067C42.0258 34.3568 40.332 35.9049 39.3862 36.8726C36.7405 39.5089 33.1272 40.8294 29.4282 40.8526C28.422 40.8469 27.4528 40.7737 26.4688 40.5625C26.4013 40.5482 26.3338 40.534 26.2644 40.5192C23.6641 39.9476 21.466 38.6334 19.5078 36.8672C19.4113 36.7802 19.4113 36.7802 19.3128 36.6913C18.4565 35.8752 16.9355 34.2709 16.8867 33.0376C16.9328 31.4538 18.8668 29.7304 19.9536 28.6978C21.955 26.9334 24.3059 25.8836 26.8984 25.3516C27.001 25.3302 27.1036 25.3088 27.2093 25.2868C31.4339 24.5761 35.7618 25.9364 38.9404 28.7408ZM22 30.7657C21.9295 30.8246 21.8591 30.8835 21.7865 30.9443C21.1101 31.5282 20.5537 32.1963 20.0234 32.9141C21.0017 35.011 23.4235 36.5556 25.5114 37.353C27.6102 38.0694 29.8905 38.2369 32.0547 37.7266C32.1144 37.7128 32.1741 37.6989 32.2356 37.6847C34.8613 37.0521 37.1006 35.4231 38.7404 33.3045C38.8681 33.0921 38.8681 33.0921 38.7964 32.8708C37.4568 30.5635 34.7948 28.9989 32.283 28.327C28.6387 27.3989 24.8416 28.3381 22 30.7657Z" fill="#BD903F"/>
<path d="M27.5256 4.50967C27.7524 4.71957 27.9717 4.93612 28.1883 5.15647C28.2589 5.22715 28.3295 5.29782 28.4022 5.37064C30.4021 7.47761 30.9378 10.1056 30.8682 12.9229C30.7432 15.3924 29.3423 17.6438 27.5703 19.2833C26.391 20.3363 24.9176 21.06 23.3758 21.3987C23.2934 21.4178 23.211 21.437 23.1261 21.4567C20.53 21.9589 17.9177 21.357 15.721 19.9391C14.6921 19.2082 13.7193 18.2694 13.0633 17.1877C13.0146 17.1137 12.9658 17.0397 12.9156 16.9635C11.6215 14.9087 11.2651 12.3038 11.7044 9.93137C11.7523 9.74231 11.8041 9.5542 11.8602 9.36741C11.8884 9.26472 11.9167 9.16202 11.9458 9.05622C12.6656 6.66267 14.313 4.63767 16.4908 3.41859C19.9713 1.55665 24.5202 1.83842 27.5256 4.50967ZM15.9852 7.47678C14.6592 9.11472 14.2802 10.915 14.4383 12.9768C14.5867 14.2074 15.2387 15.5008 16.0711 16.4143C16.1326 16.4836 16.1941 16.553 16.2574 16.6244C17.5 17.9501 19.1733 18.7081 20.991 18.7694C22.7957 18.7923 24.439 18.2481 25.7821 17.0158C25.847 16.9588 25.9119 16.9017 25.9788 16.843C27.1713 15.7345 27.9841 14.0829 28.0537 12.4514C28.0557 12.2739 28.0558 12.0962 28.054 11.9187C28.0533 11.8247 28.0525 11.7308 28.0517 11.634C28.0155 9.93894 27.3555 8.46116 26.2118 7.21897C26.1655 7.1648 26.1192 7.11063 26.0714 7.05482C24.9306 5.7964 23.175 5.1768 21.5228 5.04636C19.3986 4.98843 17.3792 5.86325 15.9852 7.47678Z" fill="#BD903F"/>
<path d="M16.5869 25.1799C16.9452 25.63 17.0636 25.9811 17.0166 26.5549C16.8588 27.0144 16.6573 27.3193 16.2432 27.5861C15.9928 27.6633 15.739 27.7017 15.4805 27.7419C15.3169 27.7707 15.1535 27.7999 14.99 27.8295C14.9013 27.8454 14.8126 27.8613 14.7213 27.8777C11.3906 28.492 8.12753 29.553 5.15723 31.1955C5.15525 32.1001 5.15372 33.0047 5.15278 33.9094C5.15233 34.3294 5.15172 34.7494 5.15075 35.1694C5.14982 35.5745 5.1493 35.9796 5.14908 36.3847C5.14892 36.5395 5.14861 36.6943 5.14815 36.8491C5.14753 37.0654 5.14744 37.2817 5.14748 37.4979C5.14701 37.5946 5.14701 37.5946 5.14654 37.6933C5.1414 38.0217 5.1414 38.0217 5.24317 38.3283C5.49804 38.4133 5.66398 38.4251 5.92981 38.4255C6.06263 38.426 6.06263 38.426 6.19814 38.4266C6.34379 38.4265 6.34379 38.4265 6.49239 38.4264C6.5947 38.4267 6.69701 38.427 6.80241 38.4273C7.02496 38.428 7.24751 38.4284 7.47006 38.4287C7.82219 38.4292 8.17432 38.4307 8.52645 38.4323C8.64706 38.4328 8.76767 38.4334 8.88828 38.4339C8.94868 38.4342 9.00908 38.4345 9.07131 38.4347C9.89102 38.4384 10.7107 38.4412 11.5304 38.4422C12.0835 38.443 12.6365 38.4449 13.1895 38.4482C13.482 38.4499 13.7745 38.451 14.0671 38.4505C14.3936 38.4503 14.72 38.4522 15.0465 38.4546C15.1431 38.4541 15.2397 38.4535 15.3392 38.4529C15.8684 38.4593 16.1854 38.4879 16.5869 38.8439C16.9377 39.2326 17.0444 39.5135 17.0347 40.0424C16.9927 40.4521 16.799 40.7166 16.4956 40.9762C16.167 41.2209 16.0291 41.2611 15.6269 41.2634C15.4856 41.2645 15.4856 41.2645 15.3415 41.2656C15.1857 41.2662 15.1857 41.2662 15.0268 41.2668C14.9178 41.2675 14.8088 41.2682 14.6965 41.2689C14.3341 41.2711 13.9717 41.2724 13.6093 41.2737C13.4844 41.2741 13.3594 41.2746 13.2345 41.2751C12.7141 41.2769 12.1938 41.2785 11.6735 41.2795C10.9293 41.2809 10.1852 41.2837 9.44109 41.2886C8.9172 41.292 8.39333 41.2936 7.86943 41.2941C7.55698 41.2944 7.24458 41.2954 6.93214 41.2982C6.58248 41.3013 6.23289 41.301 5.88321 41.3003C5.78112 41.3017 5.67902 41.3031 5.57383 41.3046C4.59888 41.2974 3.79309 41.0014 3.08634 40.319C2.18123 39.2893 2.19639 38.067 2.20112 36.7734C2.20094 36.6052 2.20069 36.437 2.20037 36.2688C2.19999 35.9174 2.20054 35.5661 2.20175 35.2148C2.20322 34.7663 2.20237 34.3179 2.20083 33.8695C2.19989 33.5225 2.20019 33.1756 2.20086 32.8286C2.20103 32.6633 2.20082 32.4981 2.20022 32.3328C2.1946 30.3618 2.1946 30.3618 2.72413 29.5895C2.76168 29.5325 2.79924 29.4754 2.83793 29.4166C3.31642 28.863 3.85796 28.4937 4.5127 28.1769C4.59306 28.1376 4.67342 28.0982 4.75621 28.0576C7.79869 26.5979 11.0138 25.5624 14.3364 24.9704C14.4548 24.9492 14.4548 24.9492 14.5756 24.9277C15.3072 24.8054 15.956 24.7224 16.5869 25.1799Z" fill="#BD903F"/>
<path d="M31.2191 30.3085C31.4325 30.4732 31.6156 30.6514 31.7959 30.8516C31.8543 30.9154 31.9128 30.9792 31.9731 31.045C32.534 31.8412 32.6434 32.6438 32.5693 33.6016C32.3862 34.367 32.0289 34.9576 31.4521 35.4922C31.3901 35.5507 31.328 35.6092 31.2641 35.6695C30.4997 36.1961 29.5694 36.3929 28.6575 36.2261C27.6871 35.9663 26.9408 35.4454 26.4214 34.5859C26.0114 33.7568 25.9806 32.8166 26.1972 31.9255C26.5788 30.9092 27.2158 30.3845 28.1633 29.9332C29.1754 29.5269 30.324 29.6983 31.2191 30.3085Z" fill="#BD903F"/>
</svg>
