<svg width="63" height="40" viewBox="0 0 63 40" fill="none" xmlns="http://www.w3.org/2000/svg">
<path d="M16.3803 20.165C12.8187 20.165 9.9209 23.0627 9.9209 26.6244C9.9209 30.1861 12.8186 33.0838 16.3803 33.0838C19.942 33.0838 22.8398 30.1861 22.8398 26.6244C22.8398 23.0627 19.942 20.165 16.3803 20.165ZM16.3803 30.3843C14.3072 30.3843 12.6203 28.6976 12.6203 26.6243C12.6203 24.5511 14.307 22.8643 16.3803 22.8643C18.4535 22.8643 20.1404 24.5511 20.1404 26.6243C20.1404 28.6976 18.4535 30.3843 16.3803 30.3843Z" fill="url(#paint0_linear_1653_351)"/>
<path d="M4.55857 25.2725H1.34961V27.9718H4.55857C5.30397 27.9718 5.90826 27.3676 5.90826 26.6222C5.90826 25.8768 5.30409 25.2725 4.55857 25.2725Z" fill="url(#paint1_linear_1653_351)"/>
<path d="M31.5233 25.2725H28.2021C27.4567 25.2725 26.8524 25.8768 26.8524 26.6222C26.8524 27.3676 27.4567 27.9718 28.2021 27.9718H31.5233C32.2687 27.9718 32.873 27.3676 32.873 26.6222C32.873 25.8768 32.2687 25.2725 31.5233 25.2725Z" fill="url(#paint2_linear_1653_351)"/>
<path d="M59.3592 29.4862C58.8319 28.959 57.9776 28.959 57.4503 29.4862C56.9232 30.0133 56.9232 30.8679 57.4503 31.395L58.0911 32.0357H48.4661C47.7207 32.0357 47.1165 32.64 47.1165 33.3854C47.1165 34.1308 47.7207 34.7351 48.4661 34.7351H58.0911L57.4503 35.3759C56.9232 35.903 56.9232 36.7576 57.4503 37.2847C57.7139 37.5482 58.0593 37.68 58.4047 37.68C58.7501 37.68 59.0955 37.5482 59.359 37.2847L62.3038 34.3399C62.8309 33.8128 62.8309 32.9582 62.3038 32.4311L59.3592 29.4862Z" fill="url(#paint3_linear_1653_351)"/>
<path d="M48.4661 22.2194H58.0911L57.4503 22.8601C56.9232 23.3872 56.9232 24.2418 57.4503 24.7689C57.7139 25.0325 58.0593 25.1643 58.4047 25.1643C58.7501 25.1643 59.0955 25.0325 59.359 24.7689L62.3038 21.8242C62.8309 21.297 62.8309 20.4424 62.3038 19.9153L59.359 16.9705C58.8318 16.4434 57.9774 16.4434 57.4502 16.9705C56.9231 17.4976 56.9231 18.3522 57.4502 18.8794L58.0909 19.5201H48.4661C47.7207 19.5201 47.1165 20.1244 47.1165 20.8698C47.1165 21.6152 47.7207 22.2194 48.4661 22.2194Z" fill="url(#paint4_linear_1653_351)"/>
<path d="M46.8986 3.34012L43.9538 0.395337C43.4265 -0.131779 42.5722 -0.131779 42.0449 0.395337C41.5178 0.922454 41.5178 1.77706 42.0449 2.30417L42.6857 2.94491H29.0341C28.2887 2.94491 27.6844 3.5492 27.6844 4.2946C27.6844 5.04 28.2887 5.6443 29.0341 5.6443H42.6857L42.0449 6.28503C41.5178 6.81215 41.5178 7.66675 42.0449 8.19386C42.3085 8.45742 42.6539 8.5892 42.9993 8.5892C43.3447 8.5892 43.6901 8.45742 43.9536 8.19386L46.8984 5.24908C47.4257 4.72184 47.4257 3.86724 46.8986 3.34012Z" fill="url(#paint5_linear_1653_351)"/>
<path d="M42.6396 12.5853C42.6364 11.8421 42.0331 11.2414 41.2899 11.2414H14.848V1.34969C14.848 0.604295 14.2437 0 13.4983 0H6.97043C3.12699 0 0 3.12687 0 6.97031V33.0297C0 36.8731 3.12687 40 6.97043 40H41.4023C41.7613 40 42.1054 39.8569 42.3588 39.6026C42.6121 39.3482 42.7536 39.0034 42.752 38.6444L42.6396 12.5853ZM39.946 13.9407L39.9693 19.3421C37.2431 18.8097 35.088 16.6629 34.5442 13.9407H39.946ZM6.97043 2.69939H12.1486V11.2414H6.97043C4.61534 11.2414 2.69939 9.3254 2.69939 6.97031C2.69939 4.61521 4.61534 2.69939 6.97043 2.69939ZM2.69939 33.0297V12.4731C3.88025 13.3917 5.36196 13.9407 6.97043 13.9407H31.808C32.4055 18.1578 35.7584 21.4984 39.9811 22.0783L40.0117 29.1584C37.9444 29.4347 36.0438 30.3775 34.5637 31.8861C33.1112 33.3666 32.1964 35.2536 31.9162 37.3006H6.97043C4.61534 37.3006 2.69939 35.3848 2.69939 33.0297ZM34.6499 37.3006C34.9047 35.969 35.5363 34.7491 36.4904 33.7766C37.4604 32.788 38.685 32.1402 40.0233 31.8892L40.0466 37.3006H34.6499Z" fill="black"/>
<defs>
<linearGradient id="paint0_linear_1653_351" x1="9.9209" y1="21.2416" x2="21.861" y2="33.0839" gradientUnits="userSpaceOnUse">
<stop stop-color="#4F16FF"/>
<stop offset="1" stop-color="#2BADFF"/>
</linearGradient>
<linearGradient id="paint1_linear_1653_351" x1="1.34961" y1="25.4974" x2="3.54592" y2="29.1761" gradientUnits="userSpaceOnUse">
<stop stop-color="#4F16FF"/>
<stop offset="1" stop-color="#2BADFF"/>
</linearGradient>
<linearGradient id="paint2_linear_1653_351" x1="26.8524" y1="25.4974" x2="28.7254" y2="29.6406" gradientUnits="userSpaceOnUse">
<stop stop-color="#4F16FF"/>
<stop offset="1" stop-color="#2BADFF"/>
</linearGradient>
<linearGradient id="paint3_linear_1653_351" x1="47.1165" y1="29.8066" x2="53.8582" y2="41.9374" gradientUnits="userSpaceOnUse">
<stop stop-color="#4F16FF"/>
<stop offset="1" stop-color="#2BADFF"/>
</linearGradient>
<linearGradient id="paint4_linear_1653_351" x1="47.1165" y1="17.291" x2="53.8581" y2="29.4216" gradientUnits="userSpaceOnUse">
<stop stop-color="#4F16FF"/>
<stop offset="1" stop-color="#2BADFF"/>
</linearGradient>
<linearGradient id="paint5_linear_1653_351" x1="27.6844" y1="0.715767" x2="33.5521" y2="14.002" gradientUnits="userSpaceOnUse">
<stop stop-color="#4F16FF"/>
<stop offset="1" stop-color="#2BADFF"/>
</linearGradient>
</defs>
</svg>
